<svg width="118" height="118" viewBox="0 0 118 118" fill="none" xmlns="http://www.w3.org/2000/svg">
<path opacity="0.07" d="M31.7215 103.906L32.0045 103.966C35.111 104.647 37.7239 105.435 40.409 106.248C47.1037 108.271 54.2198 110.414 70.4388 111.378C93.1598 112.726 102.672 99.2404 111.378 72.8469C120.083 46.4595 106.73 27.3627 86.3929 10.8367C69.0601 -3.25103 44.1898 7.06795 30.6198 12.7031C28.2718 13.6723 26.261 14.5092 24.6837 15.051C14.0275 18.7235 6.33949 32.161 4.32265 65.5502C2.36602 97.8918 28.0431 103.154 31.7155 103.9L31.7215 103.906ZM28.898 21.6735C28.898 20.5558 29.342 19.4838 30.1323 18.6935C30.9226 17.9032 31.9945 17.4592 33.1122 17.4592H83.0816C84.1993 17.4592 85.2713 17.9032 86.0616 18.6935C86.8519 19.4838 87.2959 20.5558 87.2959 21.6735V30.102H90.9082C92.0259 30.102 93.0978 30.546 93.8881 31.3364C94.6784 32.1267 95.1224 33.1986 95.1224 34.3163V85.4898C95.1224 86.6075 94.6784 87.6794 93.8881 88.4697C93.0978 89.2601 92.0259 89.7041 90.9082 89.7041H25.2857C24.168 89.7041 23.0961 89.2601 22.3058 88.4697C21.5154 87.6794 21.0714 86.6075 21.0714 85.4898V34.3163C21.0714 33.1986 21.5154 32.1267 22.3058 31.3364C23.0961 30.546 24.168 30.102 25.2857 30.102H28.898V21.6735Z" fill="#0071E3"/>
<path opacity="0.2" d="M26.4898 46.4354L55.5383 65.1829C56.2912 65.6266 57.1506 65.8571 58.0245 65.8497C58.8984 65.8423 59.7538 65.5972 60.4991 65.1408L90.7276 45.2734C93.9846 43.2867 98.1266 45.6708 98.1266 49.5238V88.9635C98.1363 90.2686 97.6274 91.5241 96.7119 92.4543C95.7964 93.3845 94.5492 93.9132 93.2441 93.9243H31.3663C30.0613 93.9132 28.814 93.3845 27.8985 92.4543C26.983 91.5241 26.4742 90.2686 26.4838 88.9635V46.4354H26.4898Z" fill="#0071E3"/>
<path d="M33.1122 17.4592C31.9945 17.4592 30.9226 17.9032 30.1323 18.6936C29.3419 19.4839 28.8979 20.5558 28.8979 21.6735V36.1225C28.8979 36.4418 29.0248 36.7481 29.2506 36.9739C29.4764 37.1997 29.7827 37.3266 30.102 37.3266C30.4214 37.3266 30.7276 37.1997 30.9534 36.9739C31.1792 36.7481 31.3061 36.4418 31.3061 36.1225V21.6735C31.3061 21.1945 31.4964 20.7351 31.8351 20.3964C32.1738 20.0577 32.6332 19.8674 33.1122 19.8674H83.0816C83.5606 19.8674 84.02 20.0577 84.3587 20.3964C84.6974 20.7351 84.8877 21.1945 84.8877 21.6735V36.1225C84.8877 36.4418 85.0146 36.7481 85.2404 36.9739C85.4662 37.1997 85.7725 37.3266 86.0918 37.3266C86.4111 37.3266 86.7174 37.1997 86.9432 36.9739C87.169 36.7481 87.2959 36.4418 87.2959 36.1225V21.6735C87.2959 20.5558 86.8519 19.4839 86.0616 18.6936C85.2712 17.9032 84.1993 17.4592 83.0816 17.4592H33.1122ZM55.9898 27.6939C55.6704 27.6939 55.3642 27.8208 55.1383 28.0466C54.9125 28.2724 54.7857 28.5787 54.7857 28.898C54.7857 29.2173 54.9125 29.5236 55.1383 29.7494C55.3642 29.9752 55.6704 30.1021 55.9898 30.1021H69.8367C70.156 30.1021 70.4623 29.9752 70.6881 29.7494C70.9139 29.5236 71.0408 29.2173 71.0408 28.898C71.0408 28.5787 70.9139 28.2724 70.6881 28.0466C70.4623 27.8208 70.156 27.6939 69.8367 27.6939H55.9898ZM26.3453 32.5102H25.2857C24.8067 32.5102 24.3473 32.7005 24.0086 33.0392C23.6699 33.378 23.4796 33.8374 23.4796 34.3164V37.8805L58.0969 60.5714L92.7143 37.8805V34.3164C92.7143 33.8374 92.524 33.378 92.1853 33.0392C91.8465 32.7005 91.3871 32.5102 90.9081 32.5102H89.8485C89.5292 32.5102 89.2229 32.3834 88.9971 32.1576C88.7713 31.9318 88.6445 31.6255 88.6445 31.3062C88.6445 30.9868 88.7713 30.6806 88.9971 30.4548C89.2229 30.2289 89.5292 30.1021 89.8485 30.1021H90.9081C92.0258 30.1021 93.0978 30.5461 93.8881 31.3364C94.6784 32.1268 95.1224 33.1987 95.1224 34.3164V85.4898C95.1224 86.6075 94.6784 87.6795 93.8881 88.4698C93.0978 89.2601 92.0258 89.7041 90.9081 89.7041H25.2857C24.168 89.7041 23.0961 89.2601 22.3057 88.4698C21.5154 87.6795 21.0714 86.6075 21.0714 85.4898V34.3164C21.0714 33.1987 21.5154 32.1268 22.3057 31.3364C23.0961 30.5461 24.168 30.1021 25.2857 30.1021H26.3453C26.6646 30.1021 26.9709 30.2289 27.1967 30.4548C27.4225 30.6806 27.5494 30.9868 27.5494 31.3062C27.5494 31.6255 27.4225 31.9318 27.1967 32.1576C26.9709 32.3834 26.6646 32.5102 26.3453 32.5102ZM23.4796 85.4898C23.4796 85.9688 23.6699 86.4282 24.0086 86.767C24.3473 87.1057 24.8067 87.296 25.2857 87.296H90.9081C91.3871 87.296 91.8465 87.1057 92.1853 86.767C92.524 86.4282 92.7143 85.9688 92.7143 85.4898V40.7582L67.4586 57.3143L87.5307 76.7964C87.7606 77.0183 87.893 77.3225 87.8986 77.642C87.9042 77.9615 87.7827 78.2702 87.5608 78.5001C87.3388 78.7301 87.0346 78.8624 86.7151 78.8681C86.3956 78.8737 86.0869 78.7522 85.857 78.5302L65.3936 58.6629L59.4154 62.5822C59.0235 62.8386 58.5653 62.9752 58.0969 62.9752C57.6286 62.9752 57.1704 62.8386 56.7784 62.5822L50.8002 58.6689L30.9509 78.5122C30.7205 78.7094 30.4243 78.8125 30.1212 78.8008C29.8182 78.7891 29.5307 78.6635 29.3163 78.449C29.1018 78.2346 28.9762 77.9471 28.9645 77.6441C28.9528 77.3411 29.0559 77.0448 29.2531 76.8144L48.7412 57.3143L23.4796 40.7582V85.4898ZM54.7857 35.5205C54.7857 34.8582 55.3275 34.3164 55.9898 34.3164H77.6632C77.9826 34.3164 78.2888 34.4432 78.5146 34.669C78.7405 34.8948 78.8673 35.2011 78.8673 35.5205C78.8673 35.8398 78.7405 36.1461 78.5146 36.3719C78.2888 36.5977 77.9826 36.7245 77.6632 36.7245H55.9898C55.6704 36.7245 55.3642 36.5977 55.1383 36.3719C54.9125 36.1461 54.7857 35.8398 54.7857 35.5205ZM54.7857 42.1429C54.7857 41.4807 55.3275 40.9388 55.9898 40.9388H69.8367C70.156 40.9388 70.4623 41.0657 70.6881 41.2915C70.9139 41.5173 71.0408 41.8236 71.0408 42.1429C71.0408 42.4622 70.9139 42.7685 70.6881 42.9943C70.4623 43.2201 70.156 43.347 69.8367 43.347H55.9898C55.6704 43.347 55.3642 43.2201 55.1383 42.9943C54.9125 42.7685 54.7857 42.4622 54.7857 42.1429ZM99.9387 18.0613C100.258 18.0613 100.564 18.1881 100.79 18.4139C101.016 18.6397 101.143 18.946 101.143 19.2654V21.6735H103.551C103.87 21.6735 104.177 21.8004 104.402 22.0262C104.628 22.252 104.755 22.5583 104.755 22.8776C104.755 23.1969 104.628 23.5032 104.402 23.729C104.177 23.9548 103.87 24.0817 103.551 24.0817H101.143V26.4898C101.143 26.8092 101.016 27.1154 100.79 27.3413C100.564 27.5671 100.258 27.6939 99.9387 27.6939C99.6194 27.6939 99.3131 27.5671 99.0873 27.3413C98.8615 27.1154 98.7347 26.8092 98.7347 26.4898V24.0817H96.3265C96.0072 24.0817 95.7009 23.9548 95.4751 23.729C95.2493 23.5032 95.1224 23.1969 95.1224 22.8776C95.1224 22.5583 95.2493 22.252 95.4751 22.0262C95.7009 21.8004 96.0072 21.6735 96.3265 21.6735H98.7347V19.2654C98.7347 18.6031 99.2765 18.0613 99.9387 18.0613ZM26.7787 100.414L29.3314 102.967L26.7787 105.52L24.2201 102.967L26.7787 100.414ZM11.5411 24.2864L16.6524 29.3977L11.5411 34.503L6.43579 29.3977L11.5411 24.2864V24.2864ZM9.83732 29.3977L11.5411 31.1015L13.2449 29.3977L11.5411 27.6939L9.83732 29.3977V29.3977ZM46.4956 25.2858C45.8827 25.3242 45.301 25.5698 44.846 25.9822C44.3909 26.3945 44.0895 26.9493 43.9911 27.5555C43.8608 26.9417 43.533 26.3874 43.0579 25.9776C42.5827 25.5677 41.9864 25.3247 41.3602 25.2858C40.96 25.2713 40.5617 25.3471 40.1948 25.5076C39.828 25.6681 39.502 25.9092 39.241 26.2129C38.9719 26.5242 38.772 26.8892 38.6547 27.2836C38.5375 27.678 38.5054 28.0929 38.5607 28.5007C38.5607 31.1496 41.8719 33.5999 43.2566 34.6294L43.3349 34.6896C43.7021 34.9967 44.2319 34.9967 44.5992 34.6896C44.6654 34.6294 44.7376 34.5813 44.8159 34.5211C46.2006 33.4675 49.3733 31.0533 49.3733 28.5007C49.3733 27.0859 48.97 25.2858 46.5016 25.2858H46.4956Z" fill="#0071E3"/>
</svg>
