<svg version="1.1" viewBox="0.0 0.0 801.0 495.0" fill="none" stroke="none" stroke-linecap="square" stroke-miterlimit="10" width="801" height="495" xmlns:xlink="http://www.w3.org/1999/xlink" xmlns="http://www.w3.org/2000/svg"><path fill="#ffffff" d="M0 0L801.0 0L801.0 495.0L0 495.0L0 0Z" fill-rule="nonzero"/><path stroke="#333333" stroke-width="1.0" stroke-linecap="butt" d="M72.5 450.5L776.5 450.5" fill-rule="nonzero"/><path stroke="#cccccc" stroke-width="1.0" stroke-linecap="butt" d="M72.5 354.5L776.5 354.5" fill-rule="nonzero"/><path stroke="#cccccc" stroke-width="1.0" stroke-linecap="butt" d="M72.5 258.5L776.5 258.5" fill-rule="nonzero"/><path stroke="#cccccc" stroke-width="1.0" stroke-linecap="butt" d="M72.5 163.5L776.5 163.5" fill-rule="nonzero"/><path stroke="#cccccc" stroke-width="1.0" stroke-linecap="butt" d="M72.5 67.5L776.5 67.5" fill-rule="nonzero"/><clipPath id="id_0"><path d="M72.75 67.25L776.25 67.25L776.25 450.25L72.75 450.25L72.75 67.25Z" clip-rule="nonzero"/></clipPath><path stroke="#000000" stroke-width="2.0" stroke-linecap="butt" stroke-opacity="0.0" clip-path="url(#id_0)" d="M205.0 450.0L120.0 450.0L120.0 422.0C120.0 420.89542 120.89543 420.0 122.0 420.0L203.0 420.0C204.10457 420.0 205.0 420.89542 205.0 422.0Z" fill-rule="nonzero"/><path fill="#4285f4" clip-path="url(#id_0)" d="M205.0 450.0L120.0 450.0L120.0 422.0C120.0 420.89542 120.89543 420.0 122.0 420.0L203.0 420.0C204.10457 420.0 205.0 420.89542 205.0 422.0Z" fill-rule="nonzero"/><path stroke="#000000" stroke-width="2.0" stroke-linecap="butt" stroke-opacity="0.0" clip-path="url(#id_0)" d="M336.0 450.0L251.0 450.0L251.0 396.0C251.0 394.89542 251.89543 394.0 253.0 394.0L334.0 394.0C335.10458 394.0 336.0 394.89542 336.0 396.0Z" fill-rule="nonzero"/><path fill="#4285f4" clip-path="url(#id_0)" d="M336.0 450.0L251.0 450.0L251.0 396.0C251.0 394.89542 251.89543 394.0 253.0 394.0L334.0 394.0C335.10458 394.0 336.0 394.89542 336.0 396.0Z" fill-rule="nonzero"/><path stroke="#000000" stroke-width="2.0" stroke-linecap="butt" stroke-opacity="0.0" clip-path="url(#id_0)" d="M468.0 450.0L383.0 450.0L383.0 359.0C383.0 357.89542 383.89542 357.0 385.0 357.0L466.0 357.0C467.10458 357.0 468.0 357.89542 468.0 359.0Z" fill-rule="nonzero"/><path fill="#4285f4" clip-path="url(#id_0)" d="M468.0 450.0L383.0 450.0L383.0 359.0C383.0 357.89542 383.89542 357.0 385.0 357.0L466.0 357.0C467.10458 357.0 468.0 357.89542 468.0 359.0Z" fill-rule="nonzero"/><path stroke="#000000" stroke-width="2.0" stroke-linecap="butt" stroke-opacity="0.0" clip-path="url(#id_0)" d="M599.0 450.0L514.0 450.0L514.0 264.0C514.0 262.89542 514.89545 262.0 516.0 262.0L597.0 262.0C598.10455 262.0 599.0 262.89542 599.0 264.0Z" fill-rule="nonzero"/><path fill="#4285f4" clip-path="url(#id_0)" d="M599.0 450.0L514.0 450.0L514.0 264.0C514.0 262.89542 514.89545 262.0 516.0 262.0L597.0 262.0C598.10455 262.0 599.0 262.89542 599.0 264.0Z" fill-rule="nonzero"/><path stroke="#000000" stroke-width="2.0" stroke-linecap="butt" stroke-opacity="0.0" clip-path="url(#id_0)" d="M730.0 450.0L645.0 450.0L645.0 127.0C645.0 125.89543 645.89545 125.0 647.0 125.0L728.0 125.0C729.10455 125.0 730.0 125.89543 730.0 127.0Z" fill-rule="nonzero"/><path fill="#4285f4" clip-path="url(#id_0)" d="M730.0 450.0L645.0 450.0L645.0 127.0C645.0 125.89543 645.89545 125.0 647.0 125.0L728.0 125.0C729.10455 125.0 730.0 125.89543 730.0 127.0Z" fill-rule="nonzero"/><path stroke="#4285f4" stroke-width="2.0" stroke-linecap="butt" stroke-opacity="0.4" clip-path="url(#id_0)" d="M0 435.7447C0 435.7447 2.6666667 435.56836 4.0 435.479C5.3333335 435.38962 6.6666665 435.29944 8.0 435.20844C9.333333 435.11743 10.666667 435.0256 12.0 434.93292C13.333333 434.84024 14.666667 434.74673 16.0 434.65237C17.333334 434.55798 18.666666 434.46277 20.0 434.36667C21.333334 434.27057 22.666666 434.1736 24.0 434.07574C25.333334 433.97787 26.666666 433.87915 28.0 433.77948C29.333334 433.67984 30.666666 433.57928 32.0 433.4778C33.333332 433.3763 34.666668 433.27393 36.0 433.1706C37.333332 433.06726 38.666668 432.96298 40.0 432.85776C41.333332 432.75253 42.666668 432.64636 44.0 432.53918C45.333332 432.43204 46.666668 432.3239 48.0 432.21478C49.333332 432.10568 50.666668 431.99557 52.0 431.88446C53.333332 431.77335 54.666668 431.66122 56.0 431.54807C57.333332 431.4349 58.666668 431.32074 60.0 431.2055C61.333332 431.09027 62.666668 430.97403 64.0 430.8567C65.333336 430.73935 66.666664 430.62094 68.0 430.50146C69.333336 430.38196 70.666664 430.2614 72.0 430.13974C73.333336 430.01807 74.666664 429.8953 76.0 429.7714C77.333336 429.64746 78.666664 429.52246 80.0 429.39627C81.333336 429.2701 82.666664 429.1428 84.0 429.0143C85.333336 428.88583 86.666664 428.7562 88.0 428.62537C89.333336 428.4945 90.666664 428.36252 92.0 428.22928C93.333336 428.09604 94.666664 427.9616 96.0 427.82593C97.333336 427.69025 98.666664 427.55334 100.0 427.4152C101.333336 427.27704 102.666664 427.13763 104.0 426.99695C105.333336 426.85623 106.666664 426.7143 108.0 426.571C109.333336 426.42773 110.666664 426.2832 112.0 426.1373C113.333336 425.9914 114.666664 425.8442 116.0 425.69565C117.333336 425.54706 118.666664 425.3972 120.0 425.24588C121.333336 425.0946 122.666664 424.94196 124.0 424.7879C125.333336 424.63385 126.666664 424.4784 128.0 424.32153C129.33333 424.16464 130.66667 424.00635 132.0 423.8466C133.33333 423.68686 134.66667 423.52567 136.0 423.36298C137.33333 423.2003 138.66667 423.03616 140.0 422.8705C141.33333 422.70483 142.66667 422.53772 144.0 422.36902C145.33333 422.20032 146.66667 422.03012 148.0 421.85834C149.33333 421.68652 150.66667 421.5132 152.0 421.3383C153.33333 421.16336 154.66667 420.98685 156.0 420.80872C157.33333 420.63058 158.66667 420.45087 160.0 420.26947C161.33333 420.08807 162.66667 419.90506 164.0 419.72034C165.33333 419.5356 166.66667 419.34924 168.0 419.16113C169.33333 418.97302 170.66667 418.78323 172.0 418.59167C173.33333 418.40015 174.66667 418.20688 176.0 418.0118C177.33333 417.81674 178.66667 417.61996 180.0 417.42133C181.33333 417.2227 182.66667 417.02228 184.0 416.82C185.33333 416.61774 186.66667 416.41367 188.0 416.2077C189.33333 416.0017 190.66667 415.7939 192.0 415.58417C193.33333 415.3744 194.66667 415.16278 196.0 414.9492C197.33333 414.7356 198.66667 414.5201 200.0 414.3026C201.33333 414.0851 202.66667 413.86566 204.0 413.64417C205.33333 413.4227 206.66667 413.19922 208.0 412.9737C209.33333 412.74814 210.66667 412.52057 212.0 412.2909C213.33333 412.06122 214.66667 411.8295 216.0 411.59564C217.33333 411.36176 218.66667 411.1258 220.0 410.8876C221.33333 410.64944 222.66667 410.40915 224.0 410.16663C225.33333 409.9241 226.66667 409.6794 228.0 409.43243C229.33333 409.1855 230.66667 408.9363 232.0 408.6848C233.33333 408.43332 234.66667 408.17957 236.0 407.92346C237.33333 407.6674 238.66667 407.409 240.0 407.1482C241.33333 406.88742 242.66667 406.6243 244.0 406.35873C245.33333 406.09314 246.66667 405.82523 248.0 405.55478C249.33333 405.28436 250.66667 405.0115 252.0 404.7361C253.33333 404.46072 254.66667 404.1829 256.0 403.90247C257.33334 403.62204 258.66666 403.3391 260.0 403.05353C261.33334 402.76797 262.66666 402.47986 264.0 402.18906C265.33334 401.89825 266.66666 401.6049 268.0 401.30875C269.33334 401.01263 270.66666 400.71387 272.0 400.41232C273.33334 400.11078 274.66666 399.80655 276.0 399.49948C277.33334 399.19238 278.66666 398.8826 280.0 398.5699C281.33334 398.2572 282.66666 397.9417 284.0 397.6233C285.33334 397.30487 286.66666 396.9836 288.0 396.65936C289.33334 396.33508 290.66666 396.00797 292.0 395.67776C293.33334 395.34756 294.66666 395.01443 296.0 394.6782C297.33334 394.34195 298.66666 394.0027 300.0 393.6603C301.33334 393.3179 302.66666 392.97244 304.0 392.62378C305.33334 392.2751 306.66666 391.9233 308.0 391.56827C309.33334 391.2132 310.66666 390.85498 312.0 390.4934C313.33334 390.13184 314.66666 389.76706 316.0 389.39886C317.33334 389.0307 318.66666 388.6592 320.0 388.2843C321.33334 387.90936 322.66666 387.5311 324.0 387.1493C325.33334 386.7675 326.66666 386.3823 328.0 385.9935C329.33334 385.6047 330.66666 385.21246 332.0 384.81656C333.33334 384.42065 334.66666 384.0212 336.0 383.61804C337.33334 383.21487 338.66666 382.8081 340.0 382.39758C341.33334 381.98703 342.66666 381.5728 344.0 381.15475C345.33334 380.7367 346.66666 380.31488 348.0 379.88916C349.33334 379.46344 350.66666 379.0339 352.0 378.6004C353.33334 378.16687 354.66666 377.7295 356.0 377.28802C357.33334 376.84656 358.66666 376.40115 360.0 375.9516C361.33334 375.50204 362.66666 375.0485 364.0 374.59073C365.33334 374.13293 366.66666 373.67108 368.0 373.2049C369.33334 372.73874 370.66666 372.2684 372.0 371.7937C373.33334 371.319 374.66666 370.84006 376.0 370.35666C377.33334 369.87326 378.66666 369.38553 380.0 368.89328C381.33334 368.40103 382.66666 367.9044 384.0 367.4031C385.33334 366.90182 386.66666 366.3961 388.0 365.88565C389.33334 365.37518 390.66666 364.8602 392.0 364.3404C393.33334 363.8206 394.66666 363.29614 396.0 362.7668C397.33334 362.2375 398.66666 361.70343 400.0 361.16443C401.33334 360.6254 402.66666 360.08157 404.0 359.53268C405.33334 358.9838 406.66666 358.43 408.0 357.87106C409.33334 357.3121 410.66666 356.74817 412.0 356.179C413.33334 355.6098 414.66666 355.03555 416.0 354.45593C417.33334 353.8763 418.66666 353.29153 420.0 352.70132C421.33334 352.11108 422.66666 351.5156 424.0 350.91455C425.33334 350.31354 426.66666 349.70712 428.0 349.0951C429.33334 348.48303 430.66666 347.86554 432.0 347.24228C433.33334 346.61902 434.66666 345.9902 436.0 345.35553C437.33334 344.72086 438.66666 344.08054 440.0 343.43423C441.33334 342.78793 442.66666 342.13586 444.0 341.47772C445.33334 340.81958 446.66666 340.15558 448.0 339.48538C449.33334 338.81522 450.66666 338.13904 452.0 337.45657C453.33334 336.7741 454.66666 336.08554 456.0 335.3906C457.33334 334.69562 458.66666 333.99445 460.0 333.28674C461.33334 332.57907 462.66666 331.86505 464.0 331.1444C465.33334 330.42374 466.66666 329.69666 468.0 328.9628C469.33334 328.22894 470.66666 327.48853 472.0 326.74124C473.33334 325.99393 474.66666 325.23996 476.0 324.47897C477.33334 323.718 478.66666 322.95023 480.0 322.1753C481.33334 321.40036 482.66666 320.61853 484.0 319.8294C485.33334 319.04028 486.66666 318.2441 488.0 317.44055C489.33334 316.63696 490.66666 315.82623 492.0 315.00793C493.33334 314.18964 494.66666 313.36404 496.0 312.53076C497.33334 311.69748 498.66666 310.85678 500.0 310.00824C501.33334 309.15967 502.66666 308.30356 504.0 307.43948C505.33334 306.57538 506.66666 305.7036 508.0 304.8237C509.33334 303.94376 510.66666 303.056 512.0 302.15997C513.3333 301.26395 514.6667 300.35992 516.0 299.44748C517.3333 298.53503 518.6667 297.61447 520.0 296.6853C521.3333 295.75613 522.6667 294.8187 524.0 293.87253C525.3333 292.92636 526.6667 291.97174 528.0 291.00824C529.3333 290.0447 530.6667 289.07263 532.0 288.09146C533.3333 287.11032 534.6667 286.12042 536.0 285.12128C537.3333 284.12216 538.6667 283.11414 540.0 282.0967C541.3333 281.07928 542.6667 280.05276 544.0 279.01672C545.3333 277.98065 546.6667 276.93536 548.0 275.8803C549.3333 274.82526 550.6667 273.76083 552.0 272.68646C553.3333 271.6121 554.6667 270.52817 556.0 269.4341C557.3333 268.34006 558.6667 267.23627 560.0 266.1222C561.3333 265.00812 562.6667 263.8841 564.0 262.7496C565.3333 261.6151 566.6667 260.47052 568.0 259.31525C569.3333 258.15997 570.6667 256.99442 572.0 255.81798C573.3333 254.64154 574.6667 253.45464 576.0 252.25665C577.3333 251.05867 578.6667 249.85002 580.0 248.6301C581.3333 247.41019 582.6667 246.17938 584.0 244.93712C585.3333 243.69485 586.6667 242.44153 588.0 241.1765C589.3333 239.91148 590.6667 238.6352 592.0 237.347C593.3333 236.0588 594.6667 234.75914 596.0 233.44734C597.3333 232.13556 598.6667 230.81209 600.0 229.47627C601.3333 228.14046 602.6667 226.79274 604.0 225.43246C605.3333 224.07217 606.6667 222.69978 608.0 221.31458C609.3333 219.92938 610.6667 218.53185 612.0 217.12128C613.3333 215.71071 614.6667 214.28757 616.0 212.85117C617.3333 211.41475 618.6667 209.96555 620.0 208.50284C621.3333 207.04012 622.6667 205.56438 624.0 204.07486C625.3333 202.58536 626.6667 201.08258 628.0 199.56578C629.3333 198.049 630.6667 196.51869 632.0 194.97412C633.3333 193.42955 634.6667 191.87122 636.0 190.29834C637.3333 188.72548 638.6667 187.13861 640.0 185.53693C641.3333 183.93526 642.6667 182.3193 644.0 180.6883C645.3333 179.0573 646.6667 177.41174 648.0 175.75087C649.3333 174.08998 650.6667 172.41429 652.0 170.72299C653.3333 169.03168 654.6667 167.3253 656.0 165.60301C657.3333 163.88074 658.6667 162.1431 660.0 160.38927C661.3333 158.63544 662.6667 156.86598 664.0 155.08002C665.3333 153.29407 666.6667 151.4922 668.0 149.67352C669.3333 147.85486 670.6667 146.01999 672.0 144.168C673.3333 142.31602 674.6667 140.44754 676.0 138.56165C677.3333 136.67574 678.6667 134.77304 680.0 132.85258C681.3333 130.93214 682.6667 128.99458 684.0 127.03896C685.3333 125.08334 686.6667 123.1103 688.0 121.11885C689.3333 119.12741 690.6667 117.118225 692.0 115.09031C693.3333 113.06239 694.6667 111.0164 696.0 108.95134C697.3333 106.88628 698.6667 104.80282 700.0 102.69993C701.3333 100.59704 702.6667 98.47542 704.0 96.334015C705.3333 94.192604 706.6667 92.03213 708.0 89.851494C709.3333 87.67087 710.6667 85.47081 712.0 83.25024C713.3333 81.02967 714.6667 78.789314 716.0 76.528076C717.3333 74.26683 718.6667 71.98544 720.0 69.68278C721.3333 67.38012 722.6667 65.05694 724.0 62.7121C725.3333 60.367264 726.6667 58.001534 728.0 55.613747C729.3333 53.22596 730.6667 50.8169 732.0 48.385376C733.3333 45.95385 734.6667 43.500664 736.0 41.024605C737.3333 38.548542 738.6667 36.050423 740.0 33.529007C741.3333 31.007595 742.6667 28.463717 744.0 25.89612C745.3333 23.328522 746.6667 20.73805 748.0 18.123423C749.3333 15.508796 750.6667 12.870875 752.0 10.208357C753.3333 7.5458393 754.6667 4.859601 756.0 2.148315C757.3333 -0.5629711 758.6667 -3.2984118 760.0 -6.0593596C761.3333 -8.820307 762.6667 -11.605851 764.0 -14.41737C765.3333 -17.22889 766.6667 -20.065454 768.0 -22.92847C769.3333 -25.791487 770.6667 -28.680008 772.0 -31.595465C773.3333 -34.51092 776.0 -40.421207 776.0 -40.421207" fill-rule="nonzero"/><path stroke="#4285f4" stroke-width="3.0" stroke-linejoin="round" stroke-linecap="round" d="M154.21875 428.626L150.6875 436.54788L149.54688 436.54788L153.0625 428.90726L148.45312 428.90726L148.45312 428.01663L154.21875 428.01663L154.21875 428.626ZM159.85938 432.79788Q159.53125 433.20413 159.04688 433.45413Q158.57812 433.6885 158.01562 433.6885Q157.28125 433.6885 156.73438 433.32913Q156.1875 432.96976 155.89062 432.3135Q155.59375 431.64163 155.59375 430.84476Q155.59375 430.001 155.90625 429.3135Q156.23438 428.626 156.82812 428.26663Q157.4375 427.89163 158.23438 427.89163Q159.5 427.89163 160.21875 428.84476Q160.95312 429.79788 160.95312 431.42288L160.95312 431.73538Q160.95312 434.23538 159.96875 435.376Q158.98438 436.51663 157.0 436.54788L156.78125 436.54788L156.78125 435.64163L157.01562 435.64163Q158.35938 435.61038 159.07812 434.9385Q159.79688 434.26663 159.85938 432.79788ZM158.1875 432.79788Q158.73438 432.79788 159.1875 432.46976Q159.65625 432.126 159.875 431.64163L159.875 431.20413Q159.875 430.14163 159.40625 429.46976Q158.9375 428.79788 158.23438 428.79788Q157.51562 428.79788 157.07812 429.34476Q156.65625 429.89163 156.65625 430.79788Q156.65625 431.67288 157.0625 432.23538Q157.48438 432.79788 158.1875 432.79788ZM166.96875 428.01663L166.96875 428.92288L166.76562 428.92288Q165.5 428.95413 164.75 429.6885Q164.0 430.40726 163.875 431.71976Q164.5625 430.95413 165.71875 430.95413Q166.82812 430.95413 167.5 431.73538Q168.17188 432.51663 168.17188 433.76663Q168.17188 435.07913 167.45312 435.876Q166.73438 436.67288 165.51562 436.67288Q164.29688 436.67288 163.53125 435.73538Q162.78125 434.78226 162.78125 433.29788L162.78125 432.89163Q162.78125 430.53226 163.78125 429.28226Q164.78125 428.03226 166.76562 428.01663L166.96875 428.01663ZM165.54688 431.86038Q164.98438 431.86038 164.51562 432.1885Q164.04688 432.51663 163.85938 433.03226L163.85938 433.42288Q163.85938 434.48538 164.32812 435.126Q164.8125 435.76663 165.51562 435.76663Q166.25 435.76663 166.67188 435.23538Q167.09375 434.6885 167.09375 433.8135Q167.09375 432.9385 166.67188 432.40726Q166.25 431.86038 165.54688 431.86038ZM174.28125 433.6885L175.46875 433.6885L175.46875 434.5635L174.28125 434.5635L174.28125 436.54788L173.20312 436.54788L173.20312 434.5635L169.3125 434.5635L169.3125 433.92288L173.125 428.01663L174.28125 428.01663L174.28125 433.6885ZM170.54688 433.6885L173.20312 433.6885L173.20312 429.501L173.0625 429.73538L170.54688 433.6885Z" fill-rule="nonzero"/><path fill="#ffffff" d="M154.21875 428.626L150.6875 436.54788L149.54688 436.54788L153.0625 428.90726L148.45312 428.90726L148.45312 428.01663L154.21875 428.01663L154.21875 428.626ZM159.85938 432.79788Q159.53125 433.20413 159.04688 433.45413Q158.57812 433.6885 158.01562 433.6885Q157.28125 433.6885 156.73438 433.32913Q156.1875 432.96976 155.89062 432.3135Q155.59375 431.64163 155.59375 430.84476Q155.59375 430.001 155.90625 429.3135Q156.23438 428.626 156.82812 428.26663Q157.4375 427.89163 158.23438 427.89163Q159.5 427.89163 160.21875 428.84476Q160.95312 429.79788 160.95312 431.42288L160.95312 431.73538Q160.95312 434.23538 159.96875 435.376Q158.98438 436.51663 157.0 436.54788L156.78125 436.54788L156.78125 435.64163L157.01562 435.64163Q158.35938 435.61038 159.07812 434.9385Q159.79688 434.26663 159.85938 432.79788ZM158.1875 432.79788Q158.73438 432.79788 159.1875 432.46976Q159.65625 432.126 159.875 431.64163L159.875 431.20413Q159.875 430.14163 159.40625 429.46976Q158.9375 428.79788 158.23438 428.79788Q157.51562 428.79788 157.07812 429.34476Q156.65625 429.89163 156.65625 430.79788Q156.65625 431.67288 157.0625 432.23538Q157.48438 432.79788 158.1875 432.79788ZM166.96875 428.01663L166.96875 428.92288L166.76562 428.92288Q165.5 428.95413 164.75 429.6885Q164.0 430.40726 163.875 431.71976Q164.5625 430.95413 165.71875 430.95413Q166.82812 430.95413 167.5 431.73538Q168.17188 432.51663 168.17188 433.76663Q168.17188 435.07913 167.45312 435.876Q166.73438 436.67288 165.51562 436.67288Q164.29688 436.67288 163.53125 435.73538Q162.78125 434.78226 162.78125 433.29788L162.78125 432.89163Q162.78125 430.53226 163.78125 429.28226Q164.78125 428.03226 166.76562 428.01663L166.96875 428.01663ZM165.54688 431.86038Q164.98438 431.86038 164.51562 432.1885Q164.04688 432.51663 163.85938 433.03226L163.85938 433.42288Q163.85938 434.48538 164.32812 435.126Q164.8125 435.76663 165.51562 435.76663Q166.25 435.76663 166.67188 435.23538Q167.09375 434.6885 167.09375 433.8135Q167.09375 432.9385 166.67188 432.40726Q166.25 431.86038 165.54688 431.86038ZM174.28125 433.6885L175.46875 433.6885L175.46875 434.5635L174.28125 434.5635L174.28125 436.54788L173.20312 436.54788L173.20312 434.5635L169.3125 434.5635L169.3125 433.92288L173.125 428.01663L174.28125 428.01663L174.28125 433.6885ZM170.54688 433.6885L173.20312 433.6885L173.20312 429.501L173.0625 429.73538L170.54688 433.6885Z" fill-rule="nonzero"/><path stroke="#4285f4" stroke-width="3.0" stroke-linejoin="round" stroke-linecap="round" d="M279.76562 410.83325L278.6875 410.83325L278.6875 403.6145L276.5 404.41138L276.5 403.427L279.60938 402.25513L279.76562 402.25513L279.76562 410.83325ZM287.78125 407.97388L288.96875 407.97388L288.96875 408.84888L287.78125 408.84888L287.78125 410.83325L286.70312 410.83325L286.70312 408.84888L282.8125 408.84888L282.8125 408.20825L286.625 402.302L287.78125 402.302L287.78125 407.97388ZM284.04688 407.97388L286.70312 407.97388L286.70312 403.78638L286.5625 404.02075L284.04688 407.97388ZM294.46875 402.302L294.46875 403.20825L294.26562 403.20825Q293.0 403.2395 292.25 403.97388Q291.5 404.69263 291.375 406.00513Q292.0625 405.2395 293.21875 405.2395Q294.32812 405.2395 295.0 406.02075Q295.67188 406.802 295.67188 408.052Q295.67188 409.3645 294.95312 410.16138Q294.23438 410.95825 293.01562 410.95825Q291.79688 410.95825 291.03125 410.02075Q290.28125 409.06763 290.28125 407.58325L290.28125 407.177Q290.28125 404.81763 291.28125 403.56763Q292.28125 402.31763 294.26562 402.302L294.46875 402.302ZM293.04688 406.14575Q292.48438 406.14575 292.01562 406.47388Q291.54688 406.802 291.35938 407.31763L291.35938 407.70825Q291.35938 408.77075 291.82812 409.41138Q292.3125 410.052 293.01562 410.052Q293.75 410.052 294.17188 409.52075Q294.59375 408.97388 294.59375 408.09888Q294.59375 407.22388 294.17188 406.69263Q293.75 406.14575 293.04688 406.14575ZM302.71875 402.91138L299.1875 410.83325L298.04688 410.83325L301.5625 403.19263L296.95312 403.19263L296.95312 402.302L302.71875 402.302L302.71875 402.91138ZM309.39062 404.52075Q309.39062 405.16138 309.04688 405.66138Q308.70312 406.16138 308.14062 406.44263Q308.79688 406.72388 309.1875 407.28638Q309.57812 407.83325 309.57812 408.53638Q309.57812 409.63013 308.82812 410.302Q308.09375 410.95825 306.875 410.95825Q305.64062 410.95825 304.89062 410.302Q304.15625 409.63013 304.15625 408.53638Q304.15625 407.83325 304.53125 407.28638Q304.90625 406.72388 305.57812 406.44263Q305.01562 406.16138 304.6875 405.66138Q304.35938 405.16138 304.35938 404.52075Q304.35938 403.44263 305.04688 402.81763Q305.73438 402.177 306.875 402.177Q308.0 402.177 308.6875 402.81763Q309.39062 403.44263 309.39062 404.52075ZM308.5 408.50513Q308.5 407.78638 308.04688 407.34888Q307.59375 406.89575 306.85938 406.89575Q306.125 406.89575 305.67188 407.34888Q305.23438 407.78638 305.23438 408.52075Q305.23438 409.2395 305.67188 409.66138Q306.10938 410.06763 306.875 410.06763Q307.625 410.06763 308.0625 409.64575Q308.5 409.22388 308.5 408.50513ZM306.875 403.06763Q306.23438 403.06763 305.82812 403.47388Q305.4375 403.8645 305.4375 404.552Q305.4375 405.19263 305.82812 405.59888Q306.21875 406.00513 306.85938 406.00513Q307.51562 406.00513 307.90625 405.59888Q308.29688 405.19263 308.29688 404.552Q308.29688 403.89575 307.89062 403.4895Q307.48438 403.06763 306.875 403.06763Z" fill-rule="nonzero"/><path fill="#ffffff" d="M279.76562 410.83325L278.6875 410.83325L278.6875 403.6145L276.5 404.41138L276.5 403.427L279.60938 402.25513L279.76562 402.25513L279.76562 410.83325ZM287.78125 407.97388L288.96875 407.97388L288.96875 408.84888L287.78125 408.84888L287.78125 410.83325L286.70312 410.83325L286.70312 408.84888L282.8125 408.84888L282.8125 408.20825L286.625 402.302L287.78125 402.302L287.78125 407.97388ZM284.04688 407.97388L286.70312 407.97388L286.70312 403.78638L286.5625 404.02075L284.04688 407.97388ZM294.46875 402.302L294.46875 403.20825L294.26562 403.20825Q293.0 403.2395 292.25 403.97388Q291.5 404.69263 291.375 406.00513Q292.0625 405.2395 293.21875 405.2395Q294.32812 405.2395 295.0 406.02075Q295.67188 406.802 295.67188 408.052Q295.67188 409.3645 294.95312 410.16138Q294.23438 410.95825 293.01562 410.95825Q291.79688 410.95825 291.03125 410.02075Q290.28125 409.06763 290.28125 407.58325L290.28125 407.177Q290.28125 404.81763 291.28125 403.56763Q292.28125 402.31763 294.26562 402.302L294.46875 402.302ZM293.04688 406.14575Q292.48438 406.14575 292.01562 406.47388Q291.54688 406.802 291.35938 407.31763L291.35938 407.70825Q291.35938 408.77075 291.82812 409.41138Q292.3125 410.052 293.01562 410.052Q293.75 410.052 294.17188 409.52075Q294.59375 408.97388 294.59375 408.09888Q294.59375 407.22388 294.17188 406.69263Q293.75 406.14575 293.04688 406.14575ZM302.71875 402.91138L299.1875 410.83325L298.04688 410.83325L301.5625 403.19263L296.95312 403.19263L296.95312 402.302L302.71875 402.302L302.71875 402.91138ZM309.39062 404.52075Q309.39062 405.16138 309.04688 405.66138Q308.70312 406.16138 308.14062 406.44263Q308.79688 406.72388 309.1875 407.28638Q309.57812 407.83325 309.57812 408.53638Q309.57812 409.63013 308.82812 410.302Q308.09375 410.95825 306.875 410.95825Q305.64062 410.95825 304.89062 410.302Q304.15625 409.63013 304.15625 408.53638Q304.15625 407.83325 304.53125 407.28638Q304.90625 406.72388 305.57812 406.44263Q305.01562 406.16138 304.6875 405.66138Q304.35938 405.16138 304.35938 404.52075Q304.35938 403.44263 305.04688 402.81763Q305.73438 402.177 306.875 402.177Q308.0 402.177 308.6875 402.81763Q309.39062 403.44263 309.39062 404.52075ZM308.5 408.50513Q308.5 407.78638 308.04688 407.34888Q307.59375 406.89575 306.85938 406.89575Q306.125 406.89575 305.67188 407.34888Q305.23438 407.78638 305.23438 408.52075Q305.23438 409.2395 305.67188 409.66138Q306.10938 410.06763 306.875 410.06763Q307.625 410.06763 308.0625 409.64575Q308.5 409.22388 308.5 408.50513ZM306.875 403.06763Q306.23438 403.06763 305.82812 403.47388Q305.4375 403.8645 305.4375 404.552Q305.4375 405.19263 305.82812 405.59888Q306.21875 406.00513 306.85938 406.00513Q307.51562 406.00513 307.90625 405.59888Q308.29688 405.19263 308.29688 404.552Q308.29688 403.89575 307.89062 403.4895Q307.48438 403.06763 306.875 403.06763Z" fill-rule="nonzero"/><path stroke="#4285f4" stroke-width="3.0" stroke-linejoin="round" stroke-linecap="round" d="M413.79688 374.1227L408.20312 374.1227L408.20312 373.34146L411.15625 370.0602Q411.8125 369.3102 412.0625 368.8571Q412.3125 368.38834 412.3125 367.88834Q412.3125 367.21646 411.90625 366.7946Q411.51562 366.3571 410.82812 366.3571Q410.03125 366.3571 409.57812 366.82584Q409.125 367.27896 409.125 368.1071L408.04688 368.1071Q408.04688 366.9196 408.79688 366.20084Q409.5625 365.46646 410.82812 365.46646Q412.03125 365.46646 412.71875 366.09146Q413.40625 366.71646 413.40625 367.76334Q413.40625 369.01334 411.79688 370.76334L409.51562 373.2321L413.79688 373.2321L413.79688 374.1227ZM419.78125 371.26334L420.96875 371.26334L420.96875 372.13834L419.78125 372.13834L419.78125 374.1227L418.70312 374.1227L418.70312 372.13834L414.8125 372.13834L414.8125 371.4977L418.625 365.59146L419.78125 365.59146L419.78125 371.26334ZM416.04688 371.26334L418.70312 371.26334L418.70312 367.07584L418.5625 367.3102L416.04688 371.26334ZM427.79688 374.1227L422.20312 374.1227L422.20312 373.34146L425.15625 370.0602Q425.8125 369.3102 426.0625 368.8571Q426.3125 368.38834 426.3125 367.88834Q426.3125 367.21646 425.90625 366.7946Q425.51562 366.3571 424.82812 366.3571Q424.03125 366.3571 423.57812 366.82584Q423.125 367.27896 423.125 368.1071L422.04688 368.1071Q422.04688 366.9196 422.79688 366.20084Q423.5625 365.46646 424.82812 365.46646Q426.03125 365.46646 426.71875 366.09146Q427.40625 366.71646 427.40625 367.76334Q427.40625 369.01334 425.79688 370.76334L423.51562 373.2321L427.79688 373.2321L427.79688 374.1227ZM433.46875 365.59146L433.46875 366.4977L433.26562 366.4977Q432.0 366.52896 431.25 367.26334Q430.5 367.9821 430.375 369.2946Q431.0625 368.52896 432.21875 368.52896Q433.32812 368.52896 434.0 369.3102Q434.67188 370.09146 434.67188 371.34146Q434.67188 372.65396 433.95312 373.45084Q433.23438 374.2477 432.01562 374.2477Q430.79688 374.2477 430.03125 373.3102Q429.28125 372.3571 429.28125 370.8727L429.28125 370.46646Q429.28125 368.1071 430.28125 366.8571Q431.28125 365.6071 433.26562 365.59146L433.46875 365.59146ZM432.04688 369.4352Q431.48438 369.4352 431.01562 369.76334Q430.54688 370.09146 430.35938 370.6071L430.35938 370.9977Q430.35938 372.0602 430.82812 372.70084Q431.3125 373.34146 432.01562 373.34146Q432.75 373.34146 433.17188 372.8102Q433.59375 372.26334 433.59375 371.38834Q433.59375 370.51334 433.17188 369.9821Q432.75 369.4352 432.04688 369.4352ZM437.78125 369.32584L438.59375 369.32584Q439.375 369.3102 439.8125 368.9196Q440.25 368.52896 440.25 367.8571Q440.25 366.3571 438.75 366.3571Q438.04688 366.3571 437.625 366.76334Q437.21875 367.1696 437.21875 367.82584L436.125 367.82584Q436.125 366.8102 436.85938 366.13834Q437.60938 365.46646 438.75 365.46646Q439.95312 365.46646 440.64062 366.1071Q441.32812 366.7477 441.32812 367.88834Q441.32812 368.45084 440.96875 368.96646Q440.60938 369.4821 439.98438 369.7477Q440.6875 369.96646 441.0625 370.4821Q441.45312 370.9977 441.45312 371.7477Q441.45312 372.88834 440.70312 373.57584Q439.95312 374.2477 438.75 374.2477Q437.5625 374.2477 436.79688 373.59146Q436.04688 372.9352 436.04688 371.8727L437.14062 371.8727Q437.14062 372.5446 437.57812 372.95084Q438.01562 373.3571 438.76562 373.3571Q439.54688 373.3571 439.95312 372.95084Q440.375 372.52896 440.375 371.76334Q440.375 371.02896 439.92188 370.63834Q439.46875 370.2321 438.59375 370.21646L437.78125 370.21646L437.78125 369.32584Z" fill-rule="nonzero"/><path fill="#ffffff" d="M413.79688 374.1227L408.20312 374.1227L408.20312 373.34146L411.15625 370.0602Q411.8125 369.3102 412.0625 368.8571Q412.3125 368.38834 412.3125 367.88834Q412.3125 367.21646 411.90625 366.7946Q411.51562 366.3571 410.82812 366.3571Q410.03125 366.3571 409.57812 366.82584Q409.125 367.27896 409.125 368.1071L408.04688 368.1071Q408.04688 366.9196 408.79688 366.20084Q409.5625 365.46646 410.82812 365.46646Q412.03125 365.46646 412.71875 366.09146Q413.40625 366.71646 413.40625 367.76334Q413.40625 369.01334 411.79688 370.76334L409.51562 373.2321L413.79688 373.2321L413.79688 374.1227ZM419.78125 371.26334L420.96875 371.26334L420.96875 372.13834L419.78125 372.13834L419.78125 374.1227L418.70312 374.1227L418.70312 372.13834L414.8125 372.13834L414.8125 371.4977L418.625 365.59146L419.78125 365.59146L419.78125 371.26334ZM416.04688 371.26334L418.70312 371.26334L418.70312 367.07584L418.5625 367.3102L416.04688 371.26334ZM427.79688 374.1227L422.20312 374.1227L422.20312 373.34146L425.15625 370.0602Q425.8125 369.3102 426.0625 368.8571Q426.3125 368.38834 426.3125 367.88834Q426.3125 367.21646 425.90625 366.7946Q425.51562 366.3571 424.82812 366.3571Q424.03125 366.3571 423.57812 366.82584Q423.125 367.27896 423.125 368.1071L422.04688 368.1071Q422.04688 366.9196 422.79688 366.20084Q423.5625 365.46646 424.82812 365.46646Q426.03125 365.46646 426.71875 366.09146Q427.40625 366.71646 427.40625 367.76334Q427.40625 369.01334 425.79688 370.76334L423.51562 373.2321L427.79688 373.2321L427.79688 374.1227ZM433.46875 365.59146L433.46875 366.4977L433.26562 366.4977Q432.0 366.52896 431.25 367.26334Q430.5 367.9821 430.375 369.2946Q431.0625 368.52896 432.21875 368.52896Q433.32812 368.52896 434.0 369.3102Q434.67188 370.09146 434.67188 371.34146Q434.67188 372.65396 433.95312 373.45084Q433.23438 374.2477 432.01562 374.2477Q430.79688 374.2477 430.03125 373.3102Q429.28125 372.3571 429.28125 370.8727L429.28125 370.46646Q429.28125 368.1071 430.28125 366.8571Q431.28125 365.6071 433.26562 365.59146L433.46875 365.59146ZM432.04688 369.4352Q431.48438 369.4352 431.01562 369.76334Q430.54688 370.09146 430.35938 370.6071L430.35938 370.9977Q430.35938 372.0602 430.82812 372.70084Q431.3125 373.34146 432.01562 373.34146Q432.75 373.34146 433.17188 372.8102Q433.59375 372.26334 433.59375 371.38834Q433.59375 370.51334 433.17188 369.9821Q432.75 369.4352 432.04688 369.4352ZM437.78125 369.32584L438.59375 369.32584Q439.375 369.3102 439.8125 368.9196Q440.25 368.52896 440.25 367.8571Q440.25 366.3571 438.75 366.3571Q438.04688 366.3571 437.625 366.76334Q437.21875 367.1696 437.21875 367.82584L436.125 367.82584Q436.125 366.8102 436.85938 366.13834Q437.60938 365.46646 438.75 365.46646Q439.95312 365.46646 440.64062 366.1071Q441.32812 366.7477 441.32812 367.88834Q441.32812 368.45084 440.96875 368.96646Q440.60938 369.4821 439.98438 369.7477Q440.6875 369.96646 441.0625 370.4821Q441.45312 370.9977 441.45312 371.7477Q441.45312 372.88834 440.70312 373.57584Q439.95312 374.2477 438.75 374.2477Q437.5625 374.2477 436.79688 373.59146Q436.04688 372.9352 436.04688 371.8727L437.14062 371.8727Q437.14062 372.5446 437.57812 372.95084Q438.01562 373.3571 438.76562 373.3571Q439.54688 373.3571 439.95312 372.95084Q440.375 372.52896 440.375 371.76334Q440.375 371.02896 439.92188 370.63834Q439.46875 370.2321 438.59375 370.21646L437.78125 370.21646L437.78125 369.32584Z" fill-rule="nonzero"/><path stroke="#4285f4" stroke-width="3.0" stroke-linejoin="round" stroke-linecap="round" d="M543.78125 276.2104L544.96875 276.2104L544.96875 277.0854L543.78125 277.0854L543.78125 279.06976L542.7031 279.06976L542.7031 277.0854L538.8125 277.0854L538.8125 276.44476L542.625 270.5385L543.78125 270.5385L543.78125 276.2104ZM540.0469 276.2104L542.7031 276.2104L542.7031 272.0229L542.5625 272.25726L540.0469 276.2104ZM550.3594 275.31976Q550.03125 275.726 549.5469 275.976Q549.0781 276.2104 548.5156 276.2104Q547.78125 276.2104 547.2344 275.851Q546.6875 275.49164 546.3906 274.8354Q546.09375 274.1635 546.09375 273.36664Q546.09375 272.5229 546.40625 271.8354Q546.7344 271.1479 547.3281 270.7885Q547.9375 270.4135 548.7344 270.4135Q550.0 270.4135 550.71875 271.36664Q551.4531 272.31976 551.4531 273.94476L551.4531 274.25726Q551.4531 276.75726 550.46875 277.8979Q549.4844 279.0385 547.5 279.06976L547.28125 279.06976L547.28125 278.1635L547.5156 278.1635Q548.8594 278.13226 549.5781 277.4604Q550.2969 276.7885 550.3594 275.31976ZM548.6875 275.31976Q549.2344 275.31976 549.6875 274.99164Q550.15625 274.6479 550.375 274.1635L550.375 273.726Q550.375 272.6635 549.90625 271.99164Q549.4375 271.31976 548.7344 271.31976Q548.0156 271.31976 547.5781 271.86664Q547.15625 272.4135 547.15625 273.31976Q547.15625 274.19476 547.5625 274.75726Q547.9844 275.31976 548.6875 275.31976ZM558.5625 275.42914Q558.5625 277.3354 557.90625 278.2729Q557.2656 279.19476 555.875 279.19476Q554.5156 279.19476 553.8594 278.2885Q553.2031 277.38226 553.1719 275.56976L553.1719 274.13226Q553.1719 272.24164 553.8125 271.3354Q554.46875 270.4135 555.8594 270.4135Q557.2344 270.4135 557.8906 271.30414Q558.5469 272.17914 558.5625 274.0229L558.5625 275.42914ZM557.46875 273.94476Q557.46875 272.56976 557.0781 271.94476Q556.7031 271.30414 555.8594 271.30414Q555.03125 271.30414 554.6406 271.94476Q554.2656 272.56976 554.2656 273.86664L554.2656 275.601Q554.2656 276.976 554.65625 277.6479Q555.0625 278.30414 555.875 278.30414Q556.6719 278.30414 557.0625 277.67914Q557.4531 277.05414 557.46875 275.726L557.46875 273.94476ZM565.3906 272.75726Q565.3906 273.3979 565.0469 273.8979Q564.7031 274.3979 564.1406 274.67914Q564.7969 274.9604 565.1875 275.5229Q565.5781 276.06976 565.5781 276.7729Q565.5781 277.86664 564.8281 278.5385Q564.09375 279.19476 562.875 279.19476Q561.6406 279.19476 560.8906 278.5385Q560.15625 277.86664 560.15625 276.7729Q560.15625 276.06976 560.53125 275.5229Q560.90625 274.9604 561.5781 274.67914Q561.0156 274.3979 560.6875 273.8979Q560.3594 273.3979 560.3594 272.75726Q560.3594 271.67914 561.0469 271.05414Q561.7344 270.4135 562.875 270.4135Q564.0 270.4135 564.6875 271.05414Q565.3906 271.67914 565.3906 272.75726ZM564.5 276.74164Q564.5 276.0229 564.0469 275.5854Q563.59375 275.13226 562.8594 275.13226Q562.125 275.13226 561.6719 275.5854Q561.2344 276.0229 561.2344 276.75726Q561.2344 277.476 561.6719 277.8979Q562.1094 278.30414 562.875 278.30414Q563.625 278.30414 564.0625 277.88226Q564.5 277.4604 564.5 276.74164ZM562.875 271.30414Q562.2344 271.30414 561.8281 271.7104Q561.4375 272.101 561.4375 272.7885Q561.4375 273.42914 561.8281 273.8354Q562.21875 274.24164 562.8594 274.24164Q563.5156 274.24164 563.90625 273.8354Q564.2969 273.42914 564.2969 272.7885Q564.2969 272.13226 563.8906 271.726Q563.4844 271.30414 562.875 271.30414ZM570.7656 279.06976L569.6875 279.06976L569.6875 271.851L567.5 272.6479L567.5 271.6635L570.6094 270.49164L570.7656 270.49164L570.7656 279.06976Z" fill-rule="nonzero"/><path fill="#ffffff" d="M543.78125 276.2104L544.96875 276.2104L544.96875 277.0854L543.78125 277.0854L543.78125 279.06976L542.7031 279.06976L542.7031 277.0854L538.8125 277.0854L538.8125 276.44476L542.625 270.5385L543.78125 270.5385L543.78125 276.2104ZM540.0469 276.2104L542.7031 276.2104L542.7031 272.0229L542.5625 272.25726L540.0469 276.2104ZM550.3594 275.31976Q550.03125 275.726 549.5469 275.976Q549.0781 276.2104 548.5156 276.2104Q547.78125 276.2104 547.2344 275.851Q546.6875 275.49164 546.3906 274.8354Q546.09375 274.1635 546.09375 273.36664Q546.09375 272.5229 546.40625 271.8354Q546.7344 271.1479 547.3281 270.7885Q547.9375 270.4135 548.7344 270.4135Q550.0 270.4135 550.71875 271.36664Q551.4531 272.31976 551.4531 273.94476L551.4531 274.25726Q551.4531 276.75726 550.46875 277.8979Q549.4844 279.0385 547.5 279.06976L547.28125 279.06976L547.28125 278.1635L547.5156 278.1635Q548.8594 278.13226 549.5781 277.4604Q550.2969 276.7885 550.3594 275.31976ZM548.6875 275.31976Q549.2344 275.31976 549.6875 274.99164Q550.15625 274.6479 550.375 274.1635L550.375 273.726Q550.375 272.6635 549.90625 271.99164Q549.4375 271.31976 548.7344 271.31976Q548.0156 271.31976 547.5781 271.86664Q547.15625 272.4135 547.15625 273.31976Q547.15625 274.19476 547.5625 274.75726Q547.9844 275.31976 548.6875 275.31976ZM558.5625 275.42914Q558.5625 277.3354 557.90625 278.2729Q557.2656 279.19476 555.875 279.19476Q554.5156 279.19476 553.8594 278.2885Q553.2031 277.38226 553.1719 275.56976L553.1719 274.13226Q553.1719 272.24164 553.8125 271.3354Q554.46875 270.4135 555.8594 270.4135Q557.2344 270.4135 557.8906 271.30414Q558.5469 272.17914 558.5625 274.0229L558.5625 275.42914ZM557.46875 273.94476Q557.46875 272.56976 557.0781 271.94476Q556.7031 271.30414 555.8594 271.30414Q555.03125 271.30414 554.6406 271.94476Q554.2656 272.56976 554.2656 273.86664L554.2656 275.601Q554.2656 276.976 554.65625 277.6479Q555.0625 278.30414 555.875 278.30414Q556.6719 278.30414 557.0625 277.67914Q557.4531 277.05414 557.46875 275.726L557.46875 273.94476ZM565.3906 272.75726Q565.3906 273.3979 565.0469 273.8979Q564.7031 274.3979 564.1406 274.67914Q564.7969 274.9604 565.1875 275.5229Q565.5781 276.06976 565.5781 276.7729Q565.5781 277.86664 564.8281 278.5385Q564.09375 279.19476 562.875 279.19476Q561.6406 279.19476 560.8906 278.5385Q560.15625 277.86664 560.15625 276.7729Q560.15625 276.06976 560.53125 275.5229Q560.90625 274.9604 561.5781 274.67914Q561.0156 274.3979 560.6875 273.8979Q560.3594 273.3979 560.3594 272.75726Q560.3594 271.67914 561.0469 271.05414Q561.7344 270.4135 562.875 270.4135Q564.0 270.4135 564.6875 271.05414Q565.3906 271.67914 565.3906 272.75726ZM564.5 276.74164Q564.5 276.0229 564.0469 275.5854Q563.59375 275.13226 562.8594 275.13226Q562.125 275.13226 561.6719 275.5854Q561.2344 276.0229 561.2344 276.75726Q561.2344 277.476 561.6719 277.8979Q562.1094 278.30414 562.875 278.30414Q563.625 278.30414 564.0625 277.88226Q564.5 277.4604 564.5 276.74164ZM562.875 271.30414Q562.2344 271.30414 561.8281 271.7104Q561.4375 272.101 561.4375 272.7885Q561.4375 273.42914 561.8281 273.8354Q562.21875 274.24164 562.8594 274.24164Q563.5156 274.24164 563.90625 273.8354Q564.2969 273.42914 564.2969 272.7885Q564.2969 272.13226 563.8906 271.726Q563.4844 271.30414 562.875 271.30414ZM570.7656 279.06976L569.6875 279.06976L569.6875 271.851L567.5 272.6479L567.5 271.6635L570.6094 270.49164L570.7656 270.49164L570.7656 279.06976Z" fill-rule="nonzero"/><path stroke="#4285f4" stroke-width="3.0" stroke-linejoin="round" stroke-linecap="round" d="M675.3906 135.00749Q675.3906 135.64812 675.0469 136.14812Q674.7031 136.64812 674.1406 136.92937Q674.7969 137.21062 675.1875 137.77312Q675.5781 138.31999 675.5781 139.02312Q675.5781 140.11687 674.8281 140.78874Q674.09375 141.44499 672.875 141.44499Q671.6406 141.44499 670.8906 140.78874Q670.15625 140.11687 670.15625 139.02312Q670.15625 138.31999 670.53125 137.77312Q670.90625 137.21062 671.5781 136.92937Q671.0156 136.64812 670.6875 136.14812Q670.3594 135.64812 670.3594 135.00749Q670.3594 133.92937 671.0469 133.30437Q671.7344 132.66374 672.875 132.66374Q674.0 132.66374 674.6875 133.30437Q675.3906 133.92937 675.3906 135.00749ZM674.5 138.99187Q674.5 138.27312 674.0469 137.83562Q673.59375 137.38249 672.8594 137.38249Q672.125 137.38249 671.6719 137.83562Q671.2344 138.27312 671.2344 139.00749Q671.2344 139.72624 671.6719 140.14812Q672.1094 140.55437 672.875 140.55437Q673.625 140.55437 674.0625 140.13249Q674.5 139.71062 674.5 138.99187ZM672.875 133.55437Q672.2344 133.55437 671.8281 133.96062Q671.4375 134.35124 671.4375 135.03874Q671.4375 135.67937 671.8281 136.08562Q672.21875 136.49187 672.8594 136.49187Q673.5156 136.49187 673.90625 136.08562Q674.2969 135.67937 674.2969 135.03874Q674.2969 134.38249 673.8906 133.97624Q673.4844 133.55437 672.875 133.55437ZM677.7031 137.03874L678.1406 132.78874L682.5156 132.78874L682.5156 133.78874L679.0625 133.78874L678.7969 136.11687Q679.4375 135.74187 680.2344 135.74187Q681.3906 135.74187 682.0781 136.52312Q682.7656 137.28874 682.7656 138.60124Q682.7656 139.91374 682.0469 140.67937Q681.34375 141.44499 680.0625 141.44499Q678.9375 141.44499 678.21875 140.81999Q677.5 140.17937 677.40625 139.06999L678.4219 139.06999Q678.53125 139.80437 678.9531 140.17937Q679.375 140.55437 680.0625 140.55437Q680.8125 140.55437 681.25 140.03874Q681.6875 139.52312 681.6875 138.61687Q681.6875 137.75749 681.21875 137.24187Q680.75 136.72624 679.96875 136.72624Q679.2656 136.72624 678.8594 137.02312L678.5781 137.25749L677.7031 137.03874ZM689.5625 137.67937Q689.5625 139.58562 688.90625 140.52312Q688.2656 141.44499 686.875 141.44499Q685.5156 141.44499 684.8594 140.53874Q684.2031 139.63249 684.1719 137.81999L684.1719 136.38249Q684.1719 134.49187 684.8125 133.58562Q685.46875 132.66374 686.8594 132.66374Q688.2344 132.66374 688.8906 133.55437Q689.5469 134.42937 689.5625 136.27312L689.5625 137.67937ZM688.46875 136.19499Q688.46875 134.81999 688.0781 134.19499Q687.7031 133.55437 686.8594 133.55437Q686.03125 133.55437 685.6406 134.19499Q685.2656 134.81999 685.2656 136.11687L685.2656 137.85124Q685.2656 139.22624 685.65625 139.89812Q686.0625 140.55437 686.875 140.55437Q687.6719 140.55437 688.0625 139.92937Q688.4531 139.30437 688.46875 137.97624L688.46875 136.19499ZM695.78125 138.46062L696.96875 138.46062L696.96875 139.33562L695.78125 139.33562L695.78125 141.31999L694.7031 141.31999L694.7031 139.33562L690.8125 139.33562L690.8125 138.69499L694.625 132.78874L695.78125 132.78874L695.78125 138.46062ZM692.0469 138.46062L694.7031 138.46062L694.7031 134.27312L694.5625 134.50749L692.0469 138.46062ZM703.71875 133.39812L700.1875 141.31999L699.0469 141.31999L702.5625 133.67937L697.9531 133.67937L697.9531 132.78874L703.71875 132.78874L703.71875 133.39812Z" fill-rule="nonzero"/><path fill="#ffffff" d="M675.3906 135.00749Q675.3906 135.64812 675.0469 136.14812Q674.7031 136.64812 674.1406 136.92937Q674.7969 137.21062 675.1875 137.77312Q675.5781 138.31999 675.5781 139.02312Q675.5781 140.11687 674.8281 140.78874Q674.09375 141.44499 672.875 141.44499Q671.6406 141.44499 670.8906 140.78874Q670.15625 140.11687 670.15625 139.02312Q670.15625 138.31999 670.53125 137.77312Q670.90625 137.21062 671.5781 136.92937Q671.0156 136.64812 670.6875 136.14812Q670.3594 135.64812 670.3594 135.00749Q670.3594 133.92937 671.0469 133.30437Q671.7344 132.66374 672.875 132.66374Q674.0 132.66374 674.6875 133.30437Q675.3906 133.92937 675.3906 135.00749ZM674.5 138.99187Q674.5 138.27312 674.0469 137.83562Q673.59375 137.38249 672.8594 137.38249Q672.125 137.38249 671.6719 137.83562Q671.2344 138.27312 671.2344 139.00749Q671.2344 139.72624 671.6719 140.14812Q672.1094 140.55437 672.875 140.55437Q673.625 140.55437 674.0625 140.13249Q674.5 139.71062 674.5 138.99187ZM672.875 133.55437Q672.2344 133.55437 671.8281 133.96062Q671.4375 134.35124 671.4375 135.03874Q671.4375 135.67937 671.8281 136.08562Q672.21875 136.49187 672.8594 136.49187Q673.5156 136.49187 673.90625 136.08562Q674.2969 135.67937 674.2969 135.03874Q674.2969 134.38249 673.8906 133.97624Q673.4844 133.55437 672.875 133.55437ZM677.7031 137.03874L678.1406 132.78874L682.5156 132.78874L682.5156 133.78874L679.0625 133.78874L678.7969 136.11687Q679.4375 135.74187 680.2344 135.74187Q681.3906 135.74187 682.0781 136.52312Q682.7656 137.28874 682.7656 138.60124Q682.7656 139.91374 682.0469 140.67937Q681.34375 141.44499 680.0625 141.44499Q678.9375 141.44499 678.21875 140.81999Q677.5 140.17937 677.40625 139.06999L678.4219 139.06999Q678.53125 139.80437 678.9531 140.17937Q679.375 140.55437 680.0625 140.55437Q680.8125 140.55437 681.25 140.03874Q681.6875 139.52312 681.6875 138.61687Q681.6875 137.75749 681.21875 137.24187Q680.75 136.72624 679.96875 136.72624Q679.2656 136.72624 678.8594 137.02312L678.5781 137.25749L677.7031 137.03874ZM689.5625 137.67937Q689.5625 139.58562 688.90625 140.52312Q688.2656 141.44499 686.875 141.44499Q685.5156 141.44499 684.8594 140.53874Q684.2031 139.63249 684.1719 137.81999L684.1719 136.38249Q684.1719 134.49187 684.8125 133.58562Q685.46875 132.66374 686.8594 132.66374Q688.2344 132.66374 688.8906 133.55437Q689.5469 134.42937 689.5625 136.27312L689.5625 137.67937ZM688.46875 136.19499Q688.46875 134.81999 688.0781 134.19499Q687.7031 133.55437 686.8594 133.55437Q686.03125 133.55437 685.6406 134.19499Q685.2656 134.81999 685.2656 136.11687L685.2656 137.85124Q685.2656 139.22624 685.65625 139.89812Q686.0625 140.55437 686.875 140.55437Q687.6719 140.55437 688.0625 139.92937Q688.4531 139.30437 688.46875 137.97624L688.46875 136.19499ZM695.78125 138.46062L696.96875 138.46062L696.96875 139.33562L695.78125 139.33562L695.78125 141.31999L694.7031 141.31999L694.7031 139.33562L690.8125 139.33562L690.8125 138.69499L694.625 132.78874L695.78125 132.78874L695.78125 138.46062ZM692.0469 138.46062L694.7031 138.46062L694.7031 134.27312L694.5625 134.50749L692.0469 138.46062ZM703.71875 133.39812L700.1875 141.31999L699.0469 141.31999L702.5625 133.67937L697.9531 133.67937L697.9531 132.78874L703.71875 132.78874L703.71875 133.39812Z" fill-rule="nonzero"/><path fill="#000000" d="M60.25 450.01562Q60.25 448.48438 60.5625 447.5625Q60.875 446.625 61.484375 446.125Q62.109375 445.625 63.046875 445.625Q63.734375 445.625 64.25 445.90625Q64.78125 446.1875 65.125 446.71875Q65.46875 447.23438 65.65625 447.98438Q65.84375 448.73438 65.84375 450.01562Q65.84375 451.53125 65.53125 452.45312Q65.234375 453.375 64.609375 453.89062Q64.0 454.39062 63.046875 454.39062Q61.8125 454.39062 61.09375 453.5Q60.25 452.4375 60.25 450.01562ZM61.328125 450.01562Q61.328125 452.125 61.828125 452.82812Q62.328125 453.53125 63.046875 453.53125Q63.78125 453.53125 64.265625 452.82812Q64.765625 452.125 64.765625 450.01562Q64.765625 447.89062 64.265625 447.20312Q63.78125 446.5 63.03125 446.5Q62.3125 446.5 61.875 447.10938Q61.328125 447.89062 61.328125 450.01562Z" fill-rule="nonzero"/><path fill="#000000" d="M37.796875 357.48438L37.796875 358.5L32.109375 358.5Q32.109375 358.125 32.234375 357.76562Q32.453125 357.1875 32.921875 356.625Q33.40625 356.0625 34.3125 355.32812Q35.71875 354.17188 36.203125 353.5Q36.703125 352.82812 36.703125 352.23438Q36.703125 351.60938 36.25 351.1875Q35.796875 350.75 35.078125 350.75Q34.3125 350.75 33.859375 351.20312Q33.40625 351.65625 33.390625 352.46875L32.3125 352.35938Q32.421875 351.14062 33.140625 350.51562Q33.875 349.875 35.109375 349.875Q36.34375 349.875 37.0625 350.5625Q37.78125 351.25 37.78125 352.26562Q37.78125 352.78125 37.5625 353.28125Q37.359375 353.76562 36.859375 354.32812Q36.375 354.875 35.25 355.82812Q34.296875 356.625 34.015625 356.92188Q33.75 357.20312 33.578125 357.48438L37.796875 357.48438ZM39.25 356.25L40.359375 356.15625Q40.484375 356.96875 40.921875 357.375Q41.375 357.78125 42.015625 357.78125Q42.765625 357.78125 43.296875 357.20312Q43.828125 356.625 43.828125 355.6875Q43.828125 354.78125 43.3125 354.26562Q42.8125 353.73438 41.984375 353.73438Q41.484375 353.73438 41.0625 353.96875Q40.65625 354.20312 40.421875 354.5625L39.4375 354.4375L40.265625 350.03125L44.546875 350.03125L44.546875 351.03125L41.109375 351.03125L40.65625 353.34375Q41.421875 352.79688 42.265625 352.79688Q43.390625 352.79688 44.15625 353.57812Q44.9375 354.35938 44.9375 355.59375Q44.9375 356.75 44.265625 357.60938Q43.4375 358.64062 42.015625 358.64062Q40.84375 358.64062 40.09375 357.98438Q39.359375 357.32812 39.25 356.25ZM46.25 354.26562Q46.25 352.73438 46.5625 351.8125Q46.875 350.875 47.484375 350.375Q48.109375 349.875 49.046875 349.875Q49.734375 349.875 50.25 350.15625Q50.78125 350.4375 51.125 350.96875Q51.46875 351.48438 51.65625 352.23438Q51.84375 352.98438 51.84375 354.26562Q51.84375 355.78125 51.53125 356.70312Q51.234375 357.625 50.609375 358.14062Q50.0 358.64062 49.046875 358.64062Q47.8125 358.64062 47.09375 357.75Q46.25 356.6875 46.25 354.26562ZM47.328125 354.26562Q47.328125 356.375 47.828125 357.07812Q48.328125 357.78125 49.046875 357.78125Q49.78125 357.78125 50.265625 357.07812Q50.765625 356.375 50.765625 354.26562Q50.765625 352.14062 50.265625 351.45312Q49.78125 350.75 49.03125 350.75Q48.3125 350.75 47.875 351.35938Q47.328125 352.14062 47.328125 354.26562ZM53.25 354.26562Q53.25 352.73438 53.5625 351.8125Q53.875 350.875 54.484375 350.375Q55.109375 349.875 56.046875 349.875Q56.734375 349.875 57.25 350.15625Q57.78125 350.4375 58.125 350.96875Q58.46875 351.48438 58.65625 352.23438Q58.84375 352.98438 58.84375 354.26562Q58.84375 355.78125 58.53125 356.70312Q58.234375 357.625 57.609375 358.14062Q57.0 358.64062 56.046875 358.64062Q54.8125 358.64062 54.09375 357.75Q53.25 356.6875 53.25 354.26562ZM54.328125 354.26562Q54.328125 356.375 54.828125 357.07812Q55.328125 357.78125 56.046875 357.78125Q56.78125 357.78125 57.265625 357.07812Q57.765625 356.375 57.765625 354.26562Q57.765625 352.14062 57.265625 351.45312Q56.78125 350.75 56.03125 350.75Q55.3125 350.75 54.875 351.35938Q54.328125 352.14062 54.328125 354.26562ZM60.25 354.26562Q60.25 352.73438 60.5625 351.8125Q60.875 350.875 61.484375 350.375Q62.109375 349.875 63.046875 349.875Q63.734375 349.875 64.25 350.15625Q64.78125 350.4375 65.125 350.96875Q65.46875 351.48438 65.65625 352.23438Q65.84375 352.98438 65.84375 354.26562Q65.84375 355.78125 65.53125 356.70312Q65.234375 357.625 64.609375 358.14062Q64.0 358.64062 63.046875 358.64062Q61.8125 358.64062 61.09375 357.75Q60.25 356.6875 60.25 354.26562ZM61.328125 354.26562Q61.328125 356.375 61.828125 357.07812Q62.328125 357.78125 63.046875 357.78125Q63.78125 357.78125 64.265625 357.07812Q64.765625 356.375 64.765625 354.26562Q64.765625 352.14062 64.265625 351.45312Q63.78125 350.75 63.03125 350.75Q62.3125 350.75 61.875 351.35938Q61.328125 352.14062 61.328125 354.26562Z" fill-rule="nonzero"/><path fill="#000000" d="M32.25 260.5L33.359375 260.40625Q33.484375 261.21875 33.921875 261.625Q34.375 262.03125 35.015625 262.03125Q35.765625 262.03125 36.296875 261.45312Q36.828125 260.875 36.828125 259.9375Q36.828125 259.03125 36.3125 258.51562Q35.8125 257.98438 34.984375 257.98438Q34.484375 257.98438 34.0625 258.21875Q33.65625 258.45312 33.421875 258.8125L32.4375 258.6875L33.265625 254.28125L37.546875 254.28125L37.546875 255.28125L34.109375 255.28125L33.65625 257.59375Q34.421875 257.04688 35.265625 257.04688Q36.390625 257.04688 37.15625 257.82812Q37.9375 258.60938 37.9375 259.84375Q37.9375 261.0 37.265625 261.85938Q36.4375 262.89062 35.015625 262.89062Q33.84375 262.89062 33.09375 262.23438Q32.359375 261.57812 32.25 260.5ZM39.25 258.51562Q39.25 256.98438 39.5625 256.0625Q39.875 255.125 40.484375 254.625Q41.109375 254.125 42.046875 254.125Q42.734375 254.125 43.25 254.40625Q43.78125 254.6875 44.125 255.21875Q44.46875 255.73438 44.65625 256.48438Q44.84375 257.23438 44.84375 258.51562Q44.84375 260.03125 44.53125 260.95312Q44.234375 261.875 43.609375 262.39062Q43.0 262.89062 42.046875 262.89062Q40.8125 262.89062 40.09375 262.0Q39.25 260.9375 39.25 258.51562ZM40.328125 258.51562Q40.328125 260.625 40.828125 261.32812Q41.328125 262.03125 42.046875 262.03125Q42.78125 262.03125 43.265625 261.32812Q43.765625 260.625 43.765625 258.51562Q43.765625 256.39062 43.265625 255.70312Q42.78125 255.0 42.03125 255.0Q41.3125 255.0 40.875 255.60938Q40.328125 256.39062 40.328125 258.51562ZM46.25 258.51562Q46.25 256.98438 46.5625 256.0625Q46.875 255.125 47.484375 254.625Q48.109375 254.125 49.046875 254.125Q49.734375 254.125 50.25 254.40625Q50.78125 254.6875 51.125 255.21875Q51.46875 255.73438 51.65625 256.48438Q51.84375 257.23438 51.84375 258.51562Q51.84375 260.03125 51.53125 260.95312Q51.234375 261.875 50.609375 262.39062Q50.0 262.89062 49.046875 262.89062Q47.8125 262.89062 47.09375 262.0Q46.25 260.9375 46.25 258.51562ZM47.328125 258.51562Q47.328125 260.625 47.828125 261.32812Q48.328125 262.03125 49.046875 262.03125Q49.78125 262.03125 50.265625 261.32812Q50.765625 260.625 50.765625 258.51562Q50.765625 256.39062 50.265625 255.70312Q49.78125 255.0 49.03125 255.0Q48.3125 255.0 47.875 255.60938Q47.328125 256.39062 47.328125 258.51562ZM53.25 258.51562Q53.25 256.98438 53.5625 256.0625Q53.875 255.125 54.484375 254.625Q55.109375 254.125 56.046875 254.125Q56.734375 254.125 57.25 254.40625Q57.78125 254.6875 58.125 255.21875Q58.46875 255.73438 58.65625 256.48438Q58.84375 257.23438 58.84375 258.51562Q58.84375 260.03125 58.53125 260.95312Q58.234375 261.875 57.609375 262.39062Q57.0 262.89062 56.046875 262.89062Q54.8125 262.89062 54.09375 262.0Q53.25 260.9375 53.25 258.51562ZM54.328125 258.51562Q54.328125 260.625 54.828125 261.32812Q55.328125 262.03125 56.046875 262.03125Q56.78125 262.03125 57.265625 261.32812Q57.765625 260.625 57.765625 258.51562Q57.765625 256.39062 57.265625 255.70312Q56.78125 255.0 56.03125 255.0Q55.3125 255.0 54.875 255.60938Q54.328125 256.39062 54.328125 258.51562ZM60.25 258.51562Q60.25 256.98438 60.5625 256.0625Q60.875 255.125 61.484375 254.625Q62.109375 254.125 63.046875 254.125Q63.734375 254.125 64.25 254.40625Q64.78125 254.6875 65.125 255.21875Q65.46875 255.73438 65.65625 256.48438Q65.84375 257.23438 65.84375 258.51562Q65.84375 260.03125 65.53125 260.95312Q65.234375 261.875 64.609375 262.39062Q64.0 262.89062 63.046875 262.89062Q61.8125 262.89062 61.09375 262.0Q60.25 260.9375 60.25 258.51562ZM61.328125 258.51562Q61.328125 260.625 61.828125 261.32812Q62.328125 262.03125 63.046875 262.03125Q63.78125 262.03125 64.265625 261.32812Q64.765625 260.625 64.765625 258.51562Q64.765625 256.39062 64.265625 255.70312Q63.78125 255.0 63.03125 255.0Q62.3125 255.0 61.875 255.60938Q61.328125 256.39062 61.328125 258.51562Z" fill-rule="nonzero"/><path fill="#000000" d="M32.3125 159.53125L32.3125 158.51562L37.875 158.51562L37.875 159.34375Q37.0625 160.21875 36.25 161.67188Q35.453125 163.10938 35.015625 164.64062Q34.6875 165.71875 34.609375 167.0L33.515625 167.0Q33.53125 165.98438 33.90625 164.54688Q34.296875 163.10938 35.0 161.78125Q35.71875 160.45312 36.53125 159.53125L32.3125 159.53125ZM39.25 164.75L40.359375 164.65625Q40.484375 165.46875 40.921875 165.875Q41.375 166.28125 42.015625 166.28125Q42.765625 166.28125 43.296875 165.70312Q43.828125 165.125 43.828125 164.1875Q43.828125 163.28125 43.3125 162.76562Q42.8125 162.23438 41.984375 162.23438Q41.484375 162.23438 41.0625 162.46875Q40.65625 162.70312 40.421875 163.0625L39.4375 162.9375L40.265625 158.53125L44.546875 158.53125L44.546875 159.53125L41.109375 159.53125L40.65625 161.84375Q41.421875 161.29688 42.265625 161.29688Q43.390625 161.29688 44.15625 162.07812Q44.9375 162.85938 44.9375 164.09375Q44.9375 165.25 44.265625 166.10938Q43.4375 167.14062 42.015625 167.14062Q40.84375 167.14062 40.09375 166.48438Q39.359375 165.82812 39.25 164.75ZM46.25 162.76562Q46.25 161.23438 46.5625 160.3125Q46.875 159.375 47.484375 158.875Q48.109375 158.375 49.046875 158.375Q49.734375 158.375 50.25 158.65625Q50.78125 158.9375 51.125 159.46875Q51.46875 159.98438 51.65625 160.73438Q51.84375 161.48438 51.84375 162.76562Q51.84375 164.28125 51.53125 165.20312Q51.234375 166.125 50.609375 166.64062Q50.0 167.14062 49.046875 167.14062Q47.8125 167.14062 47.09375 166.25Q46.25 165.1875 46.25 162.76562ZM47.328125 162.76562Q47.328125 164.875 47.828125 165.57812Q48.328125 166.28125 49.046875 166.28125Q49.78125 166.28125 50.265625 165.57812Q50.765625 164.875 50.765625 162.76562Q50.765625 160.64062 50.265625 159.95312Q49.78125 159.25 49.03125 159.25Q48.3125 159.25 47.875 159.85938Q47.328125 160.64062 47.328125 162.76562ZM53.25 162.76562Q53.25 161.23438 53.5625 160.3125Q53.875 159.375 54.484375 158.875Q55.109375 158.375 56.046875 158.375Q56.734375 158.375 57.25 158.65625Q57.78125 158.9375 58.125 159.46875Q58.46875 159.98438 58.65625 160.73438Q58.84375 161.48438 58.84375 162.76562Q58.84375 164.28125 58.53125 165.20312Q58.234375 166.125 57.609375 166.64062Q57.0 167.14062 56.046875 167.14062Q54.8125 167.14062 54.09375 166.25Q53.25 165.1875 53.25 162.76562ZM54.328125 162.76562Q54.328125 164.875 54.828125 165.57812Q55.328125 166.28125 56.046875 166.28125Q56.78125 166.28125 57.265625 165.57812Q57.765625 164.875 57.765625 162.76562Q57.765625 160.64062 57.265625 159.95312Q56.78125 159.25 56.03125 159.25Q55.3125 159.25 54.875 159.85938Q54.328125 160.64062 54.328125 162.76562ZM60.25 162.76562Q60.25 161.23438 60.5625 160.3125Q60.875 159.375 61.484375 158.875Q62.109375 158.375 63.046875 158.375Q63.734375 158.375 64.25 158.65625Q64.78125 158.9375 65.125 159.46875Q65.46875 159.98438 65.65625 160.73438Q65.84375 161.48438 65.84375 162.76562Q65.84375 164.28125 65.53125 165.20312Q65.234375 166.125 64.609375 166.64062Q64.0 167.14062 63.046875 167.14062Q61.8125 167.14062 61.09375 166.25Q60.25 165.1875 60.25 162.76562ZM61.328125 162.76562Q61.328125 164.875 61.828125 165.57812Q62.328125 166.28125 63.046875 166.28125Q63.78125 166.28125 64.265625 165.57812Q64.765625 164.875 64.765625 162.76562Q64.765625 160.64062 64.265625 159.95312Q63.78125 159.25 63.03125 159.25Q62.3125 159.25 61.875 159.85938Q61.328125 160.64062 61.328125 162.76562Z" fill-rule="nonzero"/><path fill="#000000" d="M29.21875 71.25L28.171875 71.25L28.171875 64.53125Q27.78125 64.890625 27.15625 65.265625Q26.546875 65.625 26.0625 65.796875L26.0625 64.78125Q26.9375 64.359375 27.59375 63.78125Q28.265625 63.1875 28.546875 62.625L29.21875 62.625L29.21875 71.25ZM32.25 67.015625Q32.25 65.484375 32.5625 64.5625Q32.875 63.625 33.484375 63.125Q34.109375 62.625 35.046875 62.625Q35.734375 62.625 36.25 62.90625Q36.78125 63.1875 37.125 63.71875Q37.46875 64.234375 37.65625 64.984375Q37.84375 65.734375 37.84375 67.015625Q37.84375 68.53125 37.53125 69.453125Q37.234375 70.375 36.609375 70.890625Q36.0 71.390625 35.046875 71.390625Q33.8125 71.390625 33.09375 70.5Q32.25 69.4375 32.25 67.015625ZM33.328125 67.015625Q33.328125 69.125 33.828125 69.828125Q34.328125 70.53125 35.046875 70.53125Q35.78125 70.53125 36.265625 69.828125Q36.765625 69.125 36.765625 67.015625Q36.765625 64.890625 36.265625 64.203125Q35.78125 63.5 35.03125 63.5Q34.3125 63.5 33.875 64.109375Q33.328125 64.890625 33.328125 67.015625ZM39.25 67.015625Q39.25 65.484375 39.5625 64.5625Q39.875 63.625 40.484375 63.125Q41.109375 62.625 42.046875 62.625Q42.734375 62.625 43.25 62.90625Q43.78125 63.1875 44.125 63.71875Q44.46875 64.234375 44.65625 64.984375Q44.84375 65.734375 44.84375 67.015625Q44.84375 68.53125 44.53125 69.453125Q44.234375 70.375 43.609375 70.890625Q43.0 71.390625 42.046875 71.390625Q40.8125 71.390625 40.09375 70.5Q39.25 69.4375 39.25 67.015625ZM40.328125 67.015625Q40.328125 69.125 40.828125 69.828125Q41.328125 70.53125 42.046875 70.53125Q42.78125 70.53125 43.265625 69.828125Q43.765625 69.125 43.765625 67.015625Q43.765625 64.890625 43.265625 64.203125Q42.78125 63.5 42.03125 63.5Q41.3125 63.5 40.875 64.109375Q40.328125 64.890625 40.328125 67.015625ZM46.25 67.015625Q46.25 65.484375 46.5625 64.5625Q46.875 63.625 47.484375 63.125Q48.109375 62.625 49.046875 62.625Q49.734375 62.625 50.25 62.90625Q50.78125 63.1875 51.125 63.71875Q51.46875 64.234375 51.65625 64.984375Q51.84375 65.734375 51.84375 67.015625Q51.84375 68.53125 51.53125 69.453125Q51.234375 70.375 50.609375 70.890625Q50.0 71.390625 49.046875 71.390625Q47.8125 71.390625 47.09375 70.5Q46.25 69.4375 46.25 67.015625ZM47.328125 67.015625Q47.328125 69.125 47.828125 69.828125Q48.328125 70.53125 49.046875 70.53125Q49.78125 70.53125 50.265625 69.828125Q50.765625 69.125 50.765625 67.015625Q50.765625 64.890625 50.265625 64.203125Q49.78125 63.5 49.03125 63.5Q48.3125 63.5 47.875 64.109375Q47.328125 64.890625 47.328125 67.015625ZM53.25 67.015625Q53.25 65.484375 53.5625 64.5625Q53.875 63.625 54.484375 63.125Q55.109375 62.625 56.046875 62.625Q56.734375 62.625 57.25 62.90625Q57.78125 63.1875 58.125 63.71875Q58.46875 64.234375 58.65625 64.984375Q58.84375 65.734375 58.84375 67.015625Q58.84375 68.53125 58.53125 69.453125Q58.234375 70.375 57.609375 70.890625Q57.0 71.390625 56.046875 71.390625Q54.8125 71.390625 54.09375 70.5Q53.25 69.4375 53.25 67.015625ZM54.328125 67.015625Q54.328125 69.125 54.828125 69.828125Q55.328125 70.53125 56.046875 70.53125Q56.78125 70.53125 57.265625 69.828125Q57.765625 69.125 57.765625 67.015625Q57.765625 64.890625 57.265625 64.203125Q56.78125 63.5 56.03125 63.5Q55.3125 63.5 54.875 64.109375Q54.328125 64.890625 54.328125 67.015625ZM60.25 67.015625Q60.25 65.484375 60.5625 64.5625Q60.875 63.625 61.484375 63.125Q62.109375 62.625 63.046875 62.625Q63.734375 62.625 64.25 62.90625Q64.78125 63.1875 65.125 63.71875Q65.46875 64.234375 65.65625 64.984375Q65.84375 65.734375 65.84375 67.015625Q65.84375 68.53125 65.53125 69.453125Q65.234375 70.375 64.609375 70.890625Q64.0 71.390625 63.046875 71.390625Q61.8125 71.390625 61.09375 70.5Q60.25 69.4375 60.25 67.015625ZM61.328125 67.015625Q61.328125 69.125 61.828125 69.828125Q62.328125 70.53125 63.046875 70.53125Q63.78125 70.53125 64.265625 69.828125Q64.765625 69.125 64.765625 67.015625Q64.765625 64.890625 64.265625 64.203125Q63.78125 63.5 63.03125 63.5Q62.3125 63.5 61.875 64.109375Q61.328125 64.890625 61.328125 67.015625Z" fill-rule="nonzero"/><path fill="#000000" d="M142.93121 467.25L142.93121 458.65625L145.89996 458.65625Q146.89996 458.65625 147.43121 458.78125Q148.16559 458.95312 148.68121 459.39062Q149.36871 459.96875 149.69684 460.875Q150.04059 461.76562 150.04059 462.90625Q150.04059 463.89062 149.80621 464.64062Q149.58746 465.39062 149.22809 465.89062Q148.86871 466.39062 148.43121 466.67188Q148.00934 466.95312 147.41559 467.10938Q146.82184 467.25 146.04059 467.25L142.93121 467.25ZM144.07184 466.23438L145.89996 466.23438Q146.75934 466.23438 147.24371 466.07812Q147.72809 465.92188 148.00934 465.625Q148.41559 465.23438 148.63434 464.54688Q148.86871 463.85938 148.86871 462.89062Q148.86871 461.54688 148.41559 460.82812Q147.97809 460.09375 147.35309 459.84375Q146.88434 459.67188 145.88434 459.67188L144.07184 459.67188L144.07184 466.23438ZM156.05621 465.25L157.14996 465.375Q156.89996 466.32812 156.19684 466.85938Q155.49371 467.39062 154.41559 467.39062Q153.05621 467.39062 152.24371 466.54688Q151.44684 465.70312 151.44684 464.1875Q151.44684 462.625 152.25934 461.76562Q153.07184 460.89062 154.35309 460.89062Q155.60309 460.89062 156.38434 461.73438Q157.18121 462.57812 157.18121 464.125Q157.18121 464.21875 157.18121 464.40625L152.54059 464.40625Q152.60309 465.4375 153.11871 465.98438Q153.63434 466.51562 154.41559 466.51562Q154.99371 466.51562 155.39996 466.21875Q155.82184 465.90625 156.05621 465.25ZM152.60309 463.54688L156.07184 463.54688Q156.00934 462.75 155.68121 462.35938Q155.16559 461.75 154.36871 461.75Q153.63434 461.75 153.13434 462.23438Q152.64996 462.71875 152.60309 463.54688ZM162.86871 464.96875L163.89996 465.10938Q163.72809 466.17188 163.02496 466.78125Q162.32184 467.39062 161.30621 467.39062Q160.02496 467.39062 159.24371 466.5625Q158.47809 465.71875 158.47809 464.15625Q158.47809 463.15625 158.80621 462.40625Q159.14996 461.64062 159.82184 461.26562Q160.50934 460.89062 161.32184 460.89062Q162.32184 460.89062 162.96246 461.40625Q163.61871 461.90625 163.80621 462.85938L162.77496 463.01562Q162.63434 462.39062 162.25934 462.07812Q161.88434 461.75 161.35309 461.75Q160.55621 461.75 160.05621 462.32812Q159.55621 462.89062 159.55621 464.125Q159.55621 465.39062 160.04059 465.95312Q160.52496 466.51562 161.29059 466.51562Q161.91559 466.51562 162.32184 466.14062Q162.74371 465.76562 162.86871 464.96875ZM171.47809 467.25L170.43121 467.25L170.43121 460.53125Q170.04059 460.89062 169.41559 461.26562Q168.80621 461.625 168.32184 461.79688L168.32184 460.78125Q169.19684 460.35938 169.85309 459.78125Q170.52496 459.1875 170.80621 458.625L171.47809 458.625L171.47809 467.25ZM176.13434 462.59375Q175.47809 462.34375 175.14996 461.90625Q174.83746 461.45312 174.83746 460.84375Q174.83746 459.90625 175.50934 459.26562Q176.19684 458.625 177.30621 458.625Q178.43121 458.625 179.11871 459.28125Q179.80621 459.9375 179.80621 460.875Q179.80621 461.46875 179.49371 461.90625Q179.18121 462.34375 178.54059 462.59375Q179.33746 462.84375 179.74371 463.42188Q180.14996 464.0 180.14996 464.79688Q180.14996 465.89062 179.36871 466.64062Q178.60309 467.39062 177.32184 467.39062Q176.05621 467.39062 175.27496 466.64062Q174.49371 465.89062 174.49371 464.76562Q174.49371 463.92188 174.91559 463.35938Q175.35309 462.79688 176.13434 462.59375ZM175.91559 460.79688Q175.91559 461.40625 176.30621 461.79688Q176.71246 462.1875 177.33746 462.1875Q177.94684 462.1875 178.33746 461.8125Q178.72809 461.42188 178.72809 460.85938Q178.72809 460.28125 178.32184 459.89062Q177.91559 459.48438 177.32184 459.48438Q176.71246 459.48438 176.30621 459.875Q175.91559 460.26562 175.91559 460.79688ZM175.58746 464.76562Q175.58746 465.21875 175.79059 465.64062Q176.00934 466.0625 176.43121 466.29688Q176.85309 466.53125 177.33746 466.53125Q178.08746 466.53125 178.57184 466.04688Q179.07184 465.5625 179.07184 464.8125Q179.07184 464.04688 178.57184 463.54688Q178.07184 463.04688 177.30621 463.04688Q176.55621 463.04688 176.07184 463.54688Q175.58746 464.03125 175.58746 464.76562Z" fill-rule="nonzero"/><path fill="#000000" d="M276.84842 464.8125L277.87967 464.67188Q277.91092 465.65625 278.23904 466.01562Q278.56717 466.375 279.16092 466.375Q279.5828 466.375 279.8953 466.1875Q280.2078 465.98438 280.31717 465.65625Q280.44217 465.3125 280.44217 464.57812L280.44217 458.65625L281.56717 458.65625L281.56717 464.51562Q281.56717 465.59375 281.30154 466.1875Q281.05154 466.78125 280.48904 467.09375Q279.92654 467.39062 279.16092 467.39062Q278.03592 467.39062 277.42654 466.75Q276.8328 466.09375 276.84842 464.8125ZM287.37967 467.25L287.37967 466.32812Q286.6453 467.39062 285.3953 467.39062Q284.84842 467.39062 284.36404 467.1875Q283.8953 466.96875 283.66092 466.65625Q283.42654 466.32812 283.3328 465.85938Q283.2703 465.5625 283.2703 464.875L283.2703 461.03125L284.3328 461.03125L284.3328 464.48438Q284.3328 465.29688 284.3953 465.59375Q284.48904 466.0 284.80154 466.25Q285.12967 466.48438 285.61404 466.48438Q286.0828 466.48438 286.48904 466.25Q286.91092 466.0 287.0828 465.57812Q287.2703 465.15625 287.2703 464.35938L287.2703 461.03125L288.31717 461.03125L288.31717 467.25L287.37967 467.25ZM290.2703 467.25L290.2703 458.65625L291.3328 458.65625L291.3328 467.25L290.2703 467.25ZM299.97342 467.25L298.92654 467.25L298.92654 460.53125Q298.53592 460.89062 297.91092 461.26562Q297.30154 461.625 296.81717 461.79688L296.81717 460.78125Q297.69217 460.35938 298.34842 459.78125Q299.0203 459.1875 299.30154 458.625L299.97342 458.625L299.97342 467.25ZM303.16092 465.26562L304.17654 465.17188Q304.30154 465.89062 304.66092 466.21875Q305.03592 466.53125 305.59842 466.53125Q306.0828 466.53125 306.44217 466.3125Q306.81717 466.07812 307.05154 465.71875Q307.28592 465.34375 307.44217 464.71875Q307.59842 464.07812 307.59842 463.42188Q307.59842 463.34375 307.59842 463.20312Q307.28592 463.70312 306.73904 464.03125Q306.19217 464.34375 305.55154 464.34375Q304.47342 464.34375 303.73904 463.57812Q303.00467 462.79688 303.00467 461.53125Q303.00467 460.21875 303.7703 459.42188Q304.55154 458.625 305.7078 458.625Q306.53592 458.625 307.22342 459.07812Q307.92654 459.53125 308.28592 460.375Q308.6453 461.20312 308.6453 462.78125Q308.6453 464.42188 308.28592 465.40625Q307.94217 466.375 307.22342 466.89062Q306.5203 467.39062 305.5828 467.39062Q304.56717 467.39062 303.92654 466.84375Q303.28592 466.28125 303.16092 465.26562ZM307.47342 461.46875Q307.47342 460.5625 306.98904 460.03125Q306.5203 459.5 305.8328 459.5Q305.12967 459.5 304.59842 460.07812Q304.0828 460.64062 304.0828 461.5625Q304.0828 462.375 304.5828 462.89062Q305.0828 463.40625 305.80154 463.40625Q306.53592 463.40625 307.00467 462.89062Q307.47342 462.375 307.47342 461.46875Z" fill-rule="nonzero"/><path fill="#000000" d="M405.92188 467.25L405.92188 458.65625L408.89062 458.65625Q409.89062 458.65625 410.42188 458.78125Q411.15625 458.95312 411.67188 459.39062Q412.35938 459.96875 412.6875 460.875Q413.03125 461.76562 413.03125 462.90625Q413.03125 463.89062 412.79688 464.64062Q412.57812 465.39062 412.21875 465.89062Q411.85938 466.39062 411.42188 466.67188Q411.0 466.95312 410.40625 467.10938Q409.8125 467.25 409.03125 467.25L405.92188 467.25ZM407.0625 466.23438L408.89062 466.23438Q409.75 466.23438 410.23438 466.07812Q410.71875 465.92188 411.0 465.625Q411.40625 465.23438 411.625 464.54688Q411.85938 463.85938 411.85938 462.89062Q411.85938 461.54688 411.40625 460.82812Q410.96875 460.09375 410.34375 459.84375Q409.875 459.67188 408.875 459.67188L407.0625 459.67188L407.0625 466.23438ZM419.04688 465.25L420.14062 465.375Q419.89062 466.32812 419.1875 466.85938Q418.48438 467.39062 417.40625 467.39062Q416.04688 467.39062 415.23438 466.54688Q414.4375 465.70312 414.4375 464.1875Q414.4375 462.625 415.25 461.76562Q416.0625 460.89062 417.34375 460.89062Q418.59375 460.89062 419.375 461.73438Q420.17188 462.57812 420.17188 464.125Q420.17188 464.21875 420.17188 464.40625L415.53125 464.40625Q415.59375 465.4375 416.10938 465.98438Q416.625 466.51562 417.40625 466.51562Q417.98438 466.51562 418.39062 466.21875Q418.8125 465.90625 419.04688 465.25ZM415.59375 463.54688L419.0625 463.54688Q419.0 462.75 418.67188 462.35938Q418.15625 461.75 417.35938 461.75Q416.625 461.75 416.125 462.23438Q415.64062 462.71875 415.59375 463.54688ZM425.85938 464.96875L426.89062 465.10938Q426.71875 466.17188 426.01562 466.78125Q425.3125 467.39062 424.29688 467.39062Q423.01562 467.39062 422.23438 466.5625Q421.46875 465.71875 421.46875 464.15625Q421.46875 463.15625 421.79688 462.40625Q422.14062 461.64062 422.8125 461.26562Q423.5 460.89062 424.3125 460.89062Q425.3125 460.89062 425.95312 461.40625Q426.60938 461.90625 426.79688 462.85938L425.76562 463.01562Q425.625 462.39062 425.25 462.07812Q424.875 461.75 424.34375 461.75Q423.54688 461.75 423.04688 462.32812Q422.54688 462.89062 422.54688 464.125Q422.54688 465.39062 423.03125 465.95312Q423.51562 466.51562 424.28125 466.51562Q424.90625 466.51562 425.3125 466.14062Q425.73438 465.76562 425.85938 464.96875ZM434.46875 467.25L433.42188 467.25L433.42188 460.53125Q433.03125 460.89062 432.40625 461.26562Q431.79688 461.625 431.3125 461.79688L431.3125 460.78125Q432.1875 460.35938 432.84375 459.78125Q433.51562 459.1875 433.79688 458.625L434.46875 458.625L434.46875 467.25ZM437.65625 465.26562L438.67188 465.17188Q438.79688 465.89062 439.15625 466.21875Q439.53125 466.53125 440.09375 466.53125Q440.57812 466.53125 440.9375 466.3125Q441.3125 466.07812 441.54688 465.71875Q441.78125 465.34375 441.9375 464.71875Q442.09375 464.07812 442.09375 463.42188Q442.09375 463.34375 442.09375 463.20312Q441.78125 463.70312 441.23438 464.03125Q440.6875 464.34375 440.04688 464.34375Q438.96875 464.34375 438.23438 463.57812Q437.5 462.79688 437.5 461.53125Q437.5 460.21875 438.26562 459.42188Q439.04688 458.625 440.20312 458.625Q441.03125 458.625 441.71875 459.07812Q442.42188 459.53125 442.78125 460.375Q443.14062 461.20312 443.14062 462.78125Q443.14062 464.42188 442.78125 465.40625Q442.4375 466.375 441.71875 466.89062Q441.01562 467.39062 440.07812 467.39062Q439.0625 467.39062 438.42188 466.84375Q437.78125 466.28125 437.65625 465.26562ZM441.96875 461.46875Q441.96875 460.5625 441.48438 460.03125Q441.01562 459.5 440.32812 459.5Q439.625 459.5 439.09375 460.07812Q438.57812 460.64062 438.57812 461.5625Q438.57812 462.375 439.07812 462.89062Q439.57812 463.40625 440.29688 463.40625Q441.03125 463.40625 441.5 462.89062Q441.96875 462.375 441.96875 461.46875Z" fill-rule="nonzero"/><path fill="#000000" d="M537.83905 464.8125L538.8703 464.67188Q538.90155 465.65625 539.2297 466.01562Q539.5578 466.375 540.15155 466.375Q540.5734 466.375 540.8859 466.1875Q541.1984 465.98438 541.3078 465.65625Q541.4328 465.3125 541.4328 464.57812L541.4328 458.65625L542.5578 458.65625L542.5578 464.51562Q542.5578 465.59375 542.2922 466.1875Q542.0422 466.78125 541.4797 467.09375Q540.9172 467.39062 540.15155 467.39062Q539.02655 467.39062 538.4172 466.75Q537.8234 466.09375 537.83905 464.8125ZM548.3703 467.25L548.3703 466.32812Q547.6359 467.39062 546.3859 467.39062Q545.83905 467.39062 545.3547 467.1875Q544.8859 466.96875 544.65155 466.65625Q544.4172 466.32812 544.3234 465.85938Q544.2609 465.5625 544.2609 464.875L544.2609 461.03125L545.3234 461.03125L545.3234 464.48438Q545.3234 465.29688 545.3859 465.59375Q545.4797 466.0 545.7922 466.25Q546.1203 466.48438 546.6047 466.48438Q547.0734 466.48438 547.4797 466.25Q547.90155 466.0 548.0734 465.57812Q548.2609 465.15625 548.2609 464.35938L548.2609 461.03125L549.3078 461.03125L549.3078 467.25L548.3703 467.25ZM551.2922 467.25L551.2922 461.03125L552.2297 461.03125L552.2297 461.90625Q552.9172 460.89062 554.21405 460.89062Q554.77655 460.89062 555.2453 461.09375Q555.7297 461.29688 555.96405 461.625Q556.1984 461.95312 556.2922 462.39062Q556.33905 462.6875 556.33905 463.42188L556.33905 467.25L555.2922 467.25L555.2922 463.46875Q555.2922 462.8125 555.1672 462.5Q555.0422 462.1875 554.7297 462.0Q554.4172 461.79688 553.9953 461.79688Q553.3234 461.79688 552.8234 462.23438Q552.33905 462.65625 552.33905 463.84375L552.33905 467.25L551.2922 467.25ZM566.5422 466.23438L566.5422 467.25L560.8547 467.25Q560.8547 466.875 560.9797 466.51562Q561.1984 465.9375 561.6672 465.375Q562.15155 464.8125 563.0578 464.07812Q564.46405 462.92188 564.9484 462.25Q565.4484 461.57812 565.4484 460.98438Q565.4484 460.35938 564.9953 459.9375Q564.5422 459.5 563.8234 459.5Q563.0578 459.5 562.6047 459.95312Q562.15155 460.40625 562.1359 461.21875L561.0578 461.10938Q561.1672 459.89062 561.8859 459.26562Q562.6203 458.625 563.8547 458.625Q565.08905 458.625 565.8078 459.3125Q566.52655 460.0 566.52655 461.01562Q566.52655 461.53125 566.3078 462.03125Q566.1047 462.51562 565.6047 463.07812Q565.1203 463.625 563.9953 464.57812Q563.0422 465.375 562.7609 465.67188Q562.4953 465.95312 562.3234 466.23438L566.5422 466.23438ZM567.9953 463.01562Q567.9953 461.48438 568.3078 460.5625Q568.6203 459.625 569.2297 459.125Q569.8547 458.625 570.7922 458.625Q571.4797 458.625 571.9953 458.90625Q572.52655 459.1875 572.8703 459.71875Q573.21405 460.23438 573.40155 460.98438Q573.58905 461.73438 573.58905 463.01562Q573.58905 464.53125 573.27655 465.45312Q572.9797 466.375 572.3547 466.89062Q571.7453 467.39062 570.7922 467.39062Q569.5578 467.39062 568.83905 466.5Q567.9953 465.4375 567.9953 463.01562ZM569.0734 463.01562Q569.0734 465.125 569.5734 465.82812Q570.0734 466.53125 570.7922 466.53125Q571.52655 466.53125 572.0109 465.82812Q572.5109 465.125 572.5109 463.01562Q572.5109 460.89062 572.0109 460.20312Q571.52655 459.5 570.77655 459.5Q570.0578 459.5 569.6203 460.10938Q569.0734 460.89062 569.0734 463.01562Z" fill-rule="nonzero"/><path fill="#000000" d="M668.91254 467.25L668.91254 458.65625L671.8813 458.65625Q672.8813 458.65625 673.41254 458.78125Q674.1469 458.95312 674.66254 459.39062Q675.35004 459.96875 675.67816 460.875Q676.0219 461.76562 676.0219 462.90625Q676.0219 463.89062 675.78754 464.64062Q675.5688 465.39062 675.2094 465.89062Q674.85004 466.39062 674.41254 466.67188Q673.99066 466.95312 673.3969 467.10938Q672.80316 467.25 672.0219 467.25L668.91254 467.25ZM670.05316 466.23438L671.8813 466.23438Q672.74066 466.23438 673.22504 466.07812Q673.7094 465.92188 673.99066 465.625Q674.3969 465.23438 674.61566 464.54688Q674.85004 463.85938 674.85004 462.89062Q674.85004 461.54688 674.3969 460.82812Q673.9594 460.09375 673.3344 459.84375Q672.86566 459.67188 671.86566 459.67188L670.05316 459.67188L670.05316 466.23438ZM682.03754 465.25L683.1313 465.375Q682.8813 466.32812 682.17816 466.85938Q681.47504 467.39062 680.3969 467.39062Q679.03754 467.39062 678.22504 466.54688Q677.42816 465.70312 677.42816 464.1875Q677.42816 462.625 678.24066 461.76562Q679.05316 460.89062 680.3344 460.89062Q681.5844 460.89062 682.36566 461.73438Q683.16254 462.57812 683.16254 464.125Q683.16254 464.21875 683.16254 464.40625L678.5219 464.40625Q678.5844 465.4375 679.10004 465.98438Q679.61566 466.51562 680.3969 466.51562Q680.97504 466.51562 681.3813 466.21875Q681.80316 465.90625 682.03754 465.25ZM678.5844 463.54688L682.05316 463.54688Q681.99066 462.75 681.66254 462.35938Q681.1469 461.75 680.35004 461.75Q679.61566 461.75 679.11566 462.23438Q678.6313 462.71875 678.5844 463.54688ZM688.85004 464.96875L689.8813 465.10938Q689.7094 466.17188 689.0063 466.78125Q688.30316 467.39062 687.28754 467.39062Q686.0063 467.39062 685.22504 466.5625Q684.4594 465.71875 684.4594 464.15625Q684.4594 463.15625 684.78754 462.40625Q685.1313 461.64062 685.80316 461.26562Q686.49066 460.89062 687.30316 460.89062Q688.30316 460.89062 688.9438 461.40625Q689.60004 461.90625 689.78754 462.85938L688.7563 463.01562Q688.61566 462.39062 688.24066 462.07812Q687.86566 461.75 687.3344 461.75Q686.53754 461.75 686.03754 462.32812Q685.53754 462.89062 685.53754 464.125Q685.53754 465.39062 686.0219 465.95312Q686.5063 466.51562 687.2719 466.51562Q687.8969 466.51562 688.30316 466.14062Q688.72504 465.76562 688.85004 464.96875ZM699.03754 466.23438L699.03754 467.25L693.35004 467.25Q693.35004 466.875 693.47504 466.51562Q693.6938 465.9375 694.16254 465.375Q694.6469 464.8125 695.55316 464.07812Q696.9594 462.92188 697.4438 462.25Q697.9438 461.57812 697.9438 460.98438Q697.9438 460.35938 697.49066 459.9375Q697.03754 459.5 696.3188 459.5Q695.55316 459.5 695.10004 459.95312Q694.6469 460.40625 694.6313 461.21875L693.55316 461.10938Q693.66254 459.89062 694.3813 459.26562Q695.11566 458.625 696.35004 458.625Q697.5844 458.625 698.30316 459.3125Q699.0219 460.0 699.0219 461.01562Q699.0219 461.53125 698.80316 462.03125Q698.60004 462.51562 698.10004 463.07812Q697.61566 463.625 696.49066 464.57812Q695.53754 465.375 695.2563 465.67188Q694.99066 465.95312 694.8188 466.23438L699.03754 466.23438ZM700.49066 463.01562Q700.49066 461.48438 700.80316 460.5625Q701.11566 459.625 701.72504 459.125Q702.35004 458.625 703.28754 458.625Q703.97504 458.625 704.49066 458.90625Q705.0219 459.1875 705.36566 459.71875Q705.7094 460.23438 705.8969 460.98438Q706.0844 461.73438 706.0844 463.01562Q706.0844 464.53125 705.7719 465.45312Q705.47504 466.375 704.85004 466.89062Q704.24066 467.39062 703.28754 467.39062Q702.05316 467.39062 701.3344 466.5Q700.49066 465.4375 700.49066 463.01562ZM701.5688 463.01562Q701.5688 465.125 702.0688 465.82812Q702.5688 466.53125 703.28754 466.53125Q704.0219 466.53125 704.5063 465.82812Q705.0063 465.125 705.0063 463.01562Q705.0063 460.89062 704.5063 460.20312Q704.0219 459.5 703.2719 459.5Q702.55316 459.5 702.11566 460.10938Q701.5688 460.89062 701.5688 463.01562Z" fill-rule="nonzero"/><path fill="#757575" d="M326.71875 39.75L326.71875 28.296875L328.28125 28.296875L334.29688 37.28125L334.29688 28.296875L335.75 28.296875L335.75 39.75L334.1875 39.75L328.17188 30.75L328.17188 39.75L326.71875 39.75ZM343.0 39.75L343.0 38.53125Q342.03125 39.9375 340.35938 39.9375Q339.625 39.9375 338.98438 39.65625Q338.35938 39.375 338.04688 38.953125Q337.73438 38.515625 337.60938 37.90625Q337.53125 37.484375 337.53125 36.59375L337.53125 31.453125L338.9375 31.453125L338.9375 36.046875Q338.9375 37.15625 339.01562 37.53125Q339.15625 38.09375 339.57812 38.40625Q340.01562 38.71875 340.64062 38.71875Q341.28125 38.71875 341.82812 38.40625Q342.39062 38.078125 342.60938 37.515625Q342.84375 36.953125 342.84375 35.890625L342.84375 31.453125L344.25 31.453125L344.25 39.75L343.0 39.75ZM345.5625 39.75L345.5625 31.453125L346.8125 31.453125L346.8125 32.609375Q347.20312 32.0 347.84375 31.640625Q348.5 31.265625 349.32812 31.265625Q350.25 31.265625 350.84375 31.65625Q351.4375 32.03125 351.67188 32.71875Q352.65625 31.265625 354.23438 31.265625Q355.46875 31.265625 356.125 31.953125Q356.79688 32.625 356.79688 34.046875L356.79688 39.75L355.40625 39.75L355.40625 34.515625Q355.40625 33.671875 355.26562 33.3125Q355.125 32.9375 354.76562 32.71875Q354.40625 32.484375 353.92188 32.484375Q353.04688 32.484375 352.46875 33.0625Q351.89062 33.640625 351.89062 34.921875L351.89062 39.75L350.48438 39.75L350.48438 34.359375Q350.48438 33.421875 350.14062 32.953125Q349.79688 32.484375 349.01562 32.484375Q348.42188 32.484375 347.92188 32.796875Q347.42188 33.109375 347.1875 33.71875Q346.96875 34.3125 346.96875 35.4375L346.96875 39.75L345.5625 39.75ZM359.85938 39.75L358.54688 39.75L358.54688 28.296875L359.95312 28.296875L359.95312 32.375Q360.84375 31.265625 362.23438 31.265625Q363.0 31.265625 363.67188 31.578125Q364.35938 31.875 364.79688 32.4375Q365.25 33.0 365.5 33.796875Q365.75 34.578125 365.75 35.46875Q365.75 37.609375 364.6875 38.78125Q363.64062 39.9375 362.15625 39.9375Q360.6875 39.9375 359.85938 38.703125L359.85938 39.75ZM359.84375 35.53125Q359.84375 37.03125 360.25 37.6875Q360.90625 38.78125 362.04688 38.78125Q362.96875 38.78125 363.64062 37.984375Q364.3125 37.171875 364.3125 35.59375Q364.3125 33.96875 363.65625 33.203125Q363.01562 32.421875 362.10938 32.421875Q361.1875 32.421875 360.51562 33.21875Q359.84375 34.015625 359.84375 35.53125ZM373.23438 37.078125L374.6875 37.25Q374.34375 38.53125 373.40625 39.234375Q372.48438 39.9375 371.04688 39.9375Q369.21875 39.9375 368.15625 38.8125Q367.09375 37.6875 367.09375 35.671875Q367.09375 33.578125 368.17188 32.421875Q369.25 31.265625 370.96875 31.265625Q372.625 31.265625 373.67188 32.40625Q374.73438 33.53125 374.73438 35.578125Q374.73438 35.703125 374.73438 35.953125L368.54688 35.953125Q368.625 37.328125 369.3125 38.0625Q370.01562 38.78125 371.04688 38.78125Q371.82812 38.78125 372.375 38.375Q372.92188 37.96875 373.23438 37.078125ZM368.625 34.796875L373.25 34.796875Q373.15625 33.75 372.71875 33.234375Q372.04688 32.421875 370.98438 32.421875Q370.01562 32.421875 369.34375 33.078125Q368.6875 33.71875 368.625 34.796875ZM376.54688 39.75L376.54688 31.453125L377.8125 31.453125L377.8125 32.703125Q378.29688 31.828125 378.70312 31.546875Q379.10938 31.265625 379.60938 31.265625Q380.3125 31.265625 381.04688 31.71875L380.5625 33.015625Q380.04688 32.71875 379.53125 32.71875Q379.07812 32.71875 378.70312 33.0Q378.34375 33.265625 378.1875 33.765625Q377.95312 34.515625 377.95312 35.40625L377.95312 39.75L376.54688 39.75ZM385.03125 35.59375Q385.03125 33.296875 386.3125 32.1875Q387.39062 31.265625 388.92188 31.265625Q390.64062 31.265625 391.71875 32.390625Q392.8125 33.5 392.8125 35.484375Q392.8125 37.078125 392.32812 38.0Q391.84375 38.921875 390.92188 39.4375Q390.01562 39.9375 388.92188 39.9375Q387.1875 39.9375 386.10938 38.828125Q385.03125 37.703125 385.03125 35.59375ZM386.48438 35.59375Q386.48438 37.1875 387.17188 37.984375Q387.875 38.78125 388.92188 38.78125Q389.96875 38.78125 390.65625 37.984375Q391.35938 37.1875 391.35938 35.546875Q391.35938 34.015625 390.65625 33.21875Q389.96875 32.421875 388.92188 32.421875Q387.875 32.421875 387.17188 33.21875Q386.48438 34.0 386.48438 35.59375ZM394.89062 39.75L394.89062 32.546875L393.65625 32.546875L393.65625 31.453125L394.89062 31.453125L394.89062 30.5625Q394.89062 29.734375 395.04688 29.328125Q395.25 28.78125 395.75 28.4375Q396.26562 28.09375 397.1875 28.09375Q397.78125 28.09375 398.5 28.234375L398.29688 29.46875Q397.85938 29.390625 397.46875 29.390625Q396.82812 29.390625 396.5625 29.671875Q396.29688 29.9375 396.29688 30.6875L396.29688 31.453125L397.90625 31.453125L397.90625 32.546875L396.29688 32.546875L396.29688 39.75L394.89062 39.75ZM407.9375 39.75L407.9375 38.703125Q407.15625 39.9375 405.625 39.9375Q404.625 39.9375 403.79688 39.390625Q402.96875 38.84375 402.5 37.859375Q402.04688 36.875 402.04688 35.609375Q402.04688 34.359375 402.45312 33.359375Q402.875 32.34375 403.70312 31.8125Q404.53125 31.265625 405.5625 31.265625Q406.3125 31.265625 406.89062 31.578125Q407.48438 31.890625 407.84375 32.40625L407.84375 28.296875L409.25 28.296875L409.25 39.75L407.9375 39.75ZM403.5 35.609375Q403.5 37.203125 404.17188 38.0Q404.84375 38.78125 405.75 38.78125Q406.67188 38.78125 407.3125 38.03125Q407.96875 37.265625 407.96875 35.71875Q407.96875 34.015625 407.3125 33.21875Q406.65625 32.421875 405.6875 32.421875Q404.75 32.421875 404.125 33.1875Q403.5 33.953125 403.5 35.609375ZM417.23438 37.078125L418.6875 37.25Q418.34375 38.53125 417.40625 39.234375Q416.48438 39.9375 415.04688 39.9375Q413.21875 39.9375 412.15625 38.8125Q411.09375 37.6875 411.09375 35.671875Q411.09375 33.578125 412.17188 32.421875Q413.25 31.265625 414.96875 31.265625Q416.625 31.265625 417.67188 32.40625Q418.73438 33.53125 418.73438 35.578125Q418.73438 35.703125 418.73438 35.953125L412.54688 35.953125Q412.625 37.328125 413.3125 38.0625Q414.01562 38.78125 415.04688 38.78125Q415.82812 38.78125 416.375 38.375Q416.92188 37.96875 417.23438 37.078125ZM412.625 34.796875L417.25 34.796875Q417.15625 33.75 416.71875 33.234375Q416.04688 32.421875 414.98438 32.421875Q414.01562 32.421875 413.34375 33.078125Q412.6875 33.71875 412.625 34.796875ZM426.23438 37.078125L427.6875 37.25Q427.34375 38.53125 426.40625 39.234375Q425.48438 39.9375 424.04688 39.9375Q422.21875 39.9375 421.15625 38.8125Q420.09375 37.6875 420.09375 35.671875Q420.09375 33.578125 421.17188 32.421875Q422.25 31.265625 423.96875 31.265625Q425.625 31.265625 426.67188 32.40625Q427.73438 33.53125 427.73438 35.578125Q427.73438 35.703125 427.73438 35.953125L421.54688 35.953125Q421.625 37.328125 422.3125 38.0625Q423.01562 38.78125 424.04688 38.78125Q424.82812 38.78125 425.375 38.375Q425.92188 37.96875 426.23438 37.078125ZM421.625 34.796875L426.25 34.796875Q426.15625 33.75 425.71875 33.234375Q425.04688 32.421875 423.98438 32.421875Q423.01562 32.421875 422.34375 33.078125Q421.6875 33.71875 421.625 34.796875ZM429.5625 42.9375L429.5625 31.453125L430.84375 31.453125L430.84375 32.53125Q431.29688 31.890625 431.85938 31.578125Q432.4375 31.265625 433.25 31.265625Q434.3125 31.265625 435.125 31.8125Q435.9375 32.359375 436.34375 33.359375Q436.76562 34.34375 436.76562 35.53125Q436.76562 36.8125 436.29688 37.828125Q435.84375 38.84375 434.96875 39.390625Q434.10938 39.9375 433.14062 39.9375Q432.4375 39.9375 431.875 39.640625Q431.32812 39.34375 430.96875 38.890625L430.96875 42.9375L429.5625 42.9375ZM430.82812 35.640625Q430.82812 37.25 431.46875 38.015625Q432.125 38.78125 433.04688 38.78125Q433.98438 38.78125 434.65625 37.984375Q435.32812 37.1875 435.32812 35.53125Q435.32812 33.9375 434.67188 33.15625Q434.01562 32.359375 433.10938 32.359375Q432.21875 32.359375 431.51562 33.203125Q430.82812 34.046875 430.82812 35.640625ZM438.89062 39.75L438.89062 32.546875L437.65625 32.546875L437.65625 31.453125L438.89062 31.453125L438.89062 30.5625Q438.89062 29.734375 439.04688 29.328125Q439.25 28.78125 439.75 28.4375Q440.26562 28.09375 441.1875 28.09375Q441.78125 28.09375 442.5 28.234375L442.29688 29.46875Q441.85938 29.390625 441.46875 29.390625Q440.82812 29.390625 440.5625 29.671875Q440.29688 29.9375 440.29688 30.6875L440.29688 31.453125L441.90625 31.453125L441.90625 32.546875L440.29688 32.546875L440.29688 39.75L438.89062 39.75ZM447.96875 38.71875Q447.1875 39.390625 446.46875 39.671875Q445.75 39.9375 444.92188 39.9375Q443.54688 39.9375 442.8125 39.265625Q442.07812 38.59375 442.07812 37.5625Q442.07812 36.953125 442.35938 36.453125Q442.64062 35.9375 443.07812 35.640625Q443.53125 35.328125 444.09375 35.171875Q444.51562 35.0625 445.34375 34.96875Q447.04688 34.765625 447.85938 34.484375Q447.85938 34.1875 447.85938 34.109375Q447.85938 33.25 447.46875 32.90625Q446.92188 32.421875 445.85938 32.421875Q444.875 32.421875 444.39062 32.78125Q443.92188 33.125 443.70312 34.0L442.32812 33.8125Q442.51562 32.9375 442.9375 32.390625Q443.375 31.84375 444.1875 31.5625Q445.0 31.265625 446.0625 31.265625Q447.125 31.265625 447.78125 31.515625Q448.45312 31.765625 448.76562 32.140625Q449.07812 32.515625 449.20312 33.09375Q449.28125 33.453125 449.28125 34.390625L449.28125 36.265625Q449.28125 38.234375 449.35938 38.75Q449.45312 39.265625 449.71875 39.75L448.25 39.75Q448.03125 39.3125 447.96875 38.71875ZM447.85938 35.578125Q447.09375 35.890625 445.5625 36.109375Q444.6875 36.234375 444.32812 36.390625Q443.96875 36.546875 443.76562 36.859375Q443.57812 37.15625 443.57812 37.515625Q443.57812 38.078125 444.0 38.453125Q444.4375 38.828125 445.25 38.828125Q446.0625 38.828125 446.6875 38.484375Q447.32812 38.125 447.625 37.5Q447.85938 37.03125 447.85938 36.09375L447.85938 35.578125ZM451.5625 39.75L451.5625 28.296875L452.96875 28.296875L452.96875 34.828125L456.29688 31.453125L458.125 31.453125L454.95312 34.53125L458.4375 39.75L456.70312 39.75L453.96875 35.5L452.96875 36.453125L452.96875 39.75L451.5625 39.75ZM465.23438 37.078125L466.6875 37.25Q466.34375 38.53125 465.40625 39.234375Q464.48438 39.9375 463.04688 39.9375Q461.21875 39.9375 460.15625 38.8125Q459.09375 37.6875 459.09375 35.671875Q459.09375 33.578125 460.17188 32.421875Q461.25 31.265625 462.96875 31.265625Q464.625 31.265625 465.67188 32.40625Q466.73438 33.53125 466.73438 35.578125Q466.73438 35.703125 466.73438 35.953125L460.54688 35.953125Q460.625 37.328125 461.3125 38.0625Q462.01562 38.78125 463.04688 38.78125Q463.82812 38.78125 464.375 38.375Q464.92188 37.96875 465.23438 37.078125ZM460.625 34.796875L465.25 34.796875Q465.15625 33.75 464.71875 33.234375Q464.04688 32.421875 462.98438 32.421875Q462.01562 32.421875 461.34375 33.078125Q460.6875 33.71875 460.625 34.796875ZM468.0 37.265625L469.39062 37.046875Q469.5 37.890625 470.03125 38.34375Q470.57812 38.78125 471.53125 38.78125Q472.5 38.78125 472.96875 38.390625Q473.4375 37.984375 473.4375 37.453125Q473.4375 36.984375 473.03125 36.703125Q472.73438 36.515625 471.59375 36.234375Q470.04688 35.84375 469.4375 35.5625Q468.84375 35.265625 468.53125 34.765625Q468.23438 34.265625 468.23438 33.65625Q468.23438 33.09375 468.48438 32.625Q468.73438 32.15625 469.17188 31.84375Q469.5 31.59375 470.0625 31.4375Q470.64062 31.265625 471.28125 31.265625Q472.26562 31.265625 473.0 31.546875Q473.73438 31.828125 474.07812 32.3125Q474.4375 32.78125 474.57812 33.59375L473.20312 33.78125Q473.10938 33.140625 472.65625 32.78125Q472.20312 32.421875 471.39062 32.421875Q470.42188 32.421875 470.0 32.75Q469.59375 33.0625 469.59375 33.484375Q469.59375 33.765625 469.76562 33.984375Q469.9375 34.203125 470.29688 34.359375Q470.51562 34.4375 471.54688 34.71875Q473.03125 35.109375 473.625 35.375Q474.21875 35.625 474.54688 36.109375Q474.89062 36.59375 474.89062 37.3125Q474.89062 38.015625 474.46875 38.640625Q474.0625 39.25 473.28125 39.59375Q472.51562 39.9375 471.54688 39.9375Q469.92188 39.9375 469.07812 39.265625Q468.23438 38.59375 468.0 37.265625Z" fill-rule="nonzero"/></svg>